<?xml version="1.0" encoding="utf-8"?>
<!-- Generator: Adobe Illustrator 16.0.4, SVG Export Plug-In . SVG Version: 6.00 Build 0)  -->
<!DOCTYPE svg PUBLIC "-//W3C//DTD SVG 1.1//EN" "http://www.w3.org/Graphics/SVG/1.1/DTD/svg11.dtd">
<svg version="1.1" id="Capa_1" xmlns="http://www.w3.org/2000/svg" xmlns:xlink="http://www.w3.org/1999/xlink" x="0px" y="0px"
	 width="100px" height="128.5px" viewBox="0 0 100 128.5" enable-background="new 0 0 100 128.5" xml:space="preserve">
<path d="M40,64.25c0,2.762-2.238,5-5,5H5c-2.762,0-5-2.238-5-5c0-2.762,2.238-5,5-5h30C37.762,59.25,40,61.488,40,64.25z M35,79.25
	H5c-2.762,0-5,2.238-5,5s2.238,5,5,5h30c2.762,0,5-2.238,5-5S37.762,79.25,35,79.25z M97,59.25H80v-17c0-2.762-2.238-3-5-3
	s-5,0.238-5,3v17H53.5c-2.762,0-3,2.238-3,5c0,2.762,0.238,5,3,5H70v17c0,2.762,2.238,3,5,3s5-0.238,5-3v-17h17c2.762,0,3-2.238,3-5
	C100,61.488,99.762,59.25,97,59.25z M35,39.25H5c-2.762,0-5,2.238-5,5s2.238,5,5,5h30c2.762,0,5-2.238,5-5S37.762,39.25,35,39.25z"
	/>
</svg>
