<?xml version="1.0" encoding="iso-8859-1"?>
<!-- Generator: Adobe Illustrator 16.0.0, SVG Export Plug-In . SVG Version: 6.00 Build 0)  -->
<!DOCTYPE svg PUBLIC "-//W3C//DTD SVG 1.1//EN" "http://www.w3.org/Graphics/SVG/1.1/DTD/svg11.dtd">
<svg version="1.1" id="Capa_1" xmlns="http://www.w3.org/2000/svg" xmlns:xlink="http://www.w3.org/1999/xlink" x="0px" y="0px"
	 width="100px" height="90px" viewBox="0 0 100 90" style="enable-background:new 0 0 100 90;" xml:space="preserve">
<g>
	<path style="fill-rule:evenodd;clip-rule:evenodd;" d="M42.5,0H38c-1.1,0-2,0.9-2,2v19H18.32c-0.826,0-1.85,0.188-2.835,0.493
		c-0.986,0.302-1.934,0.721-2.604,1.182L1.006,30.825C0.335,31.285,0,31.893,0,32.5s0.335,1.212,1.006,1.674l11.875,8.151
		c0.671,0.46,1.618,0.879,2.604,1.183C16.471,43.812,17.495,44,18.32,44H36v44c0,1.1,0.9,2,2,2h4.5c1.1,0,2-0.9,2-2V2
		C44.5,0.9,43.6,0,42.5,0z M98.993,20.827l-11.875-8.152c-0.671-0.461-1.618-0.879-2.604-1.184C83.528,11.188,82.504,11,81.679,11
		H47.5l4.003,23h30.176c0.825,0,1.85-0.188,2.835-0.492c0.986-0.303,1.934-0.722,2.604-1.182l11.875-8.152
		C99.664,23.713,100,23.108,100,22.5C100,21.893,99.664,21.287,98.993,20.827z"/>
</g>
<g>
</g>
<g>
</g>
<g>
</g>
<g>
</g>
<g>
</g>
<g>
</g>
<g>
</g>
<g>
</g>
<g>
</g>
<g>
</g>
<g>
</g>
<g>
</g>
<g>
</g>
<g>
</g>
<g>
</g>
</svg>
