<?xml version="1.0" encoding="utf-8"?>
<!-- Generator: Adobe Illustrator 17.0.0, SVG Export Plug-In . SVG Version: 6.00 Build 0)  -->
<!DOCTYPE svg PUBLIC "-//W3C//DTD SVG 1.1//EN" "http://www.w3.org/Graphics/SVG/1.1/DTD/svg11.dtd">
<svg version="1.1" id="Capa_1" xmlns="http://www.w3.org/2000/svg" xmlns:xlink="http://www.w3.org/1999/xlink" x="0px" y="0px"
	 width="88px" height="103.5px" viewBox="0 0 88 103.5" enable-background="new 0 0 88 103.5" xml:space="preserve">
<path d="M42.744,47.5c0,1.272-1.271,2.181-1.271,2.181l-32.8,22.541c-2.607,1.74-4.744,0.459-4.744-2.844V25.62
	c0-3.302,2.137-4.582,4.744-2.843l32.8,22.541C41.473,45.318,42.744,46.228,42.744,47.5z M82.798,45.318l-33.98-22.541
	c-2.607-1.738-4.746-0.459-4.746,2.843v43.758c0,3.303,2.138,4.584,4.746,2.844l33.98-22.541c0,0,1.273-0.909,1.273-2.181
	C84.071,46.228,82.798,45.318,82.798,45.318z"/>
</svg>
