<?xml version="1.0" encoding="iso-8859-1"?>
<!-- Generator: Adobe Illustrator 16.0.0, SVG Export Plug-In . SVG Version: 6.00 Build 0)  -->
<!DOCTYPE svg PUBLIC "-//W3C//DTD SVG 1.1//EN" "http://www.w3.org/Graphics/SVG/1.1/DTD/svg11.dtd">
<svg version="1.1" id="Capa_1" xmlns="http://www.w3.org/2000/svg" xmlns:xlink="http://www.w3.org/1999/xlink" x="0px" y="0px"
	 width="92px" height="92px" viewBox="0 0 92 92" style="enable-background:new 0 0 92 92;" xml:space="preserve">
<g>
	<path d="M92,45.998C92,20.594,71.404,0,46,0C20.594,0,0,20.594,0,45.998C0,71.404,20.594,92,46,92C71.404,92,92,71.404,92,45.998z
		 M10,45.998C10,26.117,26.117,10,46,10s36,16.117,36,35.998C82,65.883,65.883,82,46,82S10,65.883,10,45.998z M65.25,55V37H44.799
		V25.75L25.75,46l19.049,20.25V55H65.25z"/>
</g>
<g>
</g>
<g>
</g>
<g>
</g>
<g>
</g>
<g>
</g>
<g>
</g>
<g>
</g>
<g>
</g>
<g>
</g>
<g>
</g>
<g>
</g>
<g>
</g>
<g>
</g>
<g>
</g>
<g>
</g>
</svg>
