<?xml version="1.0" encoding="iso-8859-1"?>
<!-- Generator: Adobe Illustrator 16.0.0, SVG Export Plug-In . SVG Version: 6.00 Build 0)  -->
<!DOCTYPE svg PUBLIC "-//W3C//DTD SVG 1.1//EN" "http://www.w3.org/Graphics/SVG/1.1/DTD/svg11.dtd">
<svg version="1.1" id="Capa_1" xmlns="http://www.w3.org/2000/svg" xmlns:xlink="http://www.w3.org/1999/xlink" x="0px" y="0px"
	 width="100px" height="84.937px" viewBox="0 0 100 84.937" style="enable-background:new 0 0 100 84.937;" xml:space="preserve">
<path d="M75.466,25.937H79V36l21-18L79,0v11.937h-3.534c-18.469,0-28.883,13.687-38.07,25.762
	c-8.264,10.859-15.398,20.238-26.93,20.238H0v14h10.466c18.471,0,28.883-13.686,38.072-25.762
	C56.8,35.315,63.937,25.937,75.466,25.937z M27.056,34.757c0.786-1.019,1.58-2.061,2.382-3.114c1.953-2.567,4.02-5.279,6.256-7.979
	c-6.604-6.171-14.574-10.728-25.228-10.728H0v14h10.466C17.102,26.937,22.279,30.052,27.056,34.757z M79,58.937h-3.534
	c-7.036,0-12.435-3.503-17.453-8.694c-0.503,0.657-1.008,1.319-1.516,1.987c-2.205,2.898-4.577,6.008-7.194,9.085
	c6.785,6.621,15.002,11.622,26.163,11.622H79v12l21-18l-21-18V58.937z"/>
<g>
</g>
<g>
</g>
<g>
</g>
<g>
</g>
<g>
</g>
<g>
</g>
<g>
</g>
<g>
</g>
<g>
</g>
<g>
</g>
<g>
</g>
<g>
</g>
<g>
</g>
<g>
</g>
<g>
</g>
</svg>
