<?xml version="1.0" encoding="iso-8859-1"?>
<!-- Generator: Adobe Illustrator 16.0.0, SVG Export Plug-In . SVG Version: 6.00 Build 0)  -->
<!DOCTYPE svg PUBLIC "-//W3C//DTD SVG 1.1//EN" "http://www.w3.org/Graphics/SVG/1.1/DTD/svg11.dtd">
<svg version="1.1" id="Capa_1" xmlns="http://www.w3.org/2000/svg" xmlns:xlink="http://www.w3.org/1999/xlink" x="0px" y="0px"
	 width="94px" height="82px" viewBox="0 0 94 82" style="enable-background:new 0 0 94 82;" xml:space="preserve">
<path d="M53.131,0C30.902,0,12.832,17.806,12.287,39.976H0l18.393,20.5l18.391-20.5H22.506C23.045,23.468,36.545,10.25,53.131,10.25
	c16.93,0,30.652,13.767,30.652,30.75S70.061,71.75,53.131,71.75c-6.789,0-13.059-2.218-18.137-5.966l-7.029,7.521
	C34.904,78.751,43.639,82,53.131,82C75.703,82,94,63.645,94,41S75.703,0,53.131,0z M49.498,19v23.45l15.027,15.024l4.949-4.949
	L56.5,39.55V19H49.498z"/>
<g>
</g>
<g>
</g>
<g>
</g>
<g>
</g>
<g>
</g>
<g>
</g>
<g>
</g>
<g>
</g>
<g>
</g>
<g>
</g>
<g>
</g>
<g>
</g>
<g>
</g>
<g>
</g>
<g>
</g>
</svg>
