<?xml version="1.0" encoding="utf-8"?>
<!-- Generator: Adobe Illustrator 16.0.4, SVG Export Plug-In . SVG Version: 6.00 Build 0)  -->
<!DOCTYPE svg PUBLIC "-//W3C//DTD SVG 1.1//EN" "http://www.w3.org/Graphics/SVG/1.1/DTD/svg11.dtd">
<svg version="1.1" id="Capa_1" xmlns="http://www.w3.org/2000/svg" xmlns:xlink="http://www.w3.org/1999/xlink" x="0px" y="0px"
	 width="100px" height="118.5px" viewBox="0 -58.5 100 118.5" enable-background="new 0 -58.5 100 118.5" xml:space="preserve">
<path d="M77.041,0.751c0-13.828,6.385-21.601,11.385-21.601c1.822,0,6.574,0,6.574,0c-3.34-5.296-6.104-8.4-18.287-8.4h-50.04
	C8-29.25,0-12.042,0,0.751C0,13.543,8,30.75,26.673,30.75h50.04c12.186,0,14.947-3.104,18.287-8.399c0,0-1.574,0-6.574,0
	S77.041,14.579,77.041,0.751z M63.438,9.724c-0.815,1.259-3.377,0.077-3.377,0.077L45.277,3.12c0,0-1.318,3.342-2.34,5.699
	c-1.02,2.355-1.805,5.025-6.045,2.042C32.652,7.877,18.991-5.392,18.991-5.392s-1.728-1.413-0.863-2.748
	c0.814-1.259,3.376-0.078,3.376-0.078l14.783,6.682c0,0,1.319-3.343,2.339-5.699c1.021-2.354,1.806-5.023,6.046-2.041
	c4.24,2.983,17.901,16.253,17.901,16.253S64.301,8.389,63.438,9.724z M94.371-9.612H90.63c-2.795,0-5.528,3.772-5.528,9.9
	c0,6.126,2.733,9.899,5.528,9.899h3.741c2.796,0,5.629-3.773,5.629-9.899C100-5.839,97.167-9.612,94.371-9.612z"/>
</svg>
