<?xml version="1.0" encoding="iso-8859-1"?>
<!-- Generator: Adobe Illustrator 16.0.0, SVG Export Plug-In . SVG Version: 6.00 Build 0)  -->
<!DOCTYPE svg PUBLIC "-//W3C//DTD SVG 1.1//EN" "http://www.w3.org/Graphics/SVG/1.1/DTD/svg11.dtd">
<svg version="1.1" id="Capa_1" xmlns="http://www.w3.org/2000/svg" xmlns:xlink="http://www.w3.org/1999/xlink" x="0px" y="0px"
	 width="96px" height="96px" viewBox="0 0 96 96" style="enable-background:new 0 0 96 96;" xml:space="preserve">
<path d="M48.002,20.37c-15.85,0-19.834,14.953-19.834,27.63s3.984,27.63,19.834,27.63c15.848,0,19.832-14.953,19.832-27.63
	S63.85,20.37,48.002,20.37z M39.465,48c0-5.584,0.387-17.212,8.537-17.212c0.645,0,1.23,0.1,1.781,0.237
	c1.14,0.984,1.699,2.341,0.604,4.233L39.834,54.653C39.509,52.201,39.465,49.793,39.465,48z M48.002,65.209
	c-0.642,0-1.233-0.064-1.781-0.202c-0.105-0.029-0.202-0.064-0.305-0.1c-0.167-0.05-0.346-0.105-0.504-0.167
	c-1.813-0.773-2.956-2.171-1.31-4.641L55.9,39.729c0.56,2.977,0.639,6.085,0.639,8.271C56.539,53.584,56.149,65.209,48.002,65.209z
	 M48,0C21.49,0,0,21.49,0,48s21.49,48,48,48s48-21.49,48-48S74.51,0,48,0z M47.999,87.2C26.35,87.2,8.8,69.649,8.8,48
	S26.35,8.8,47.999,8.8c21.65,0,39.2,17.551,39.2,39.2S69.649,87.2,47.999,87.2z"/>
<g>
</g>
<g>
</g>
<g>
</g>
<g>
</g>
<g>
</g>
<g>
</g>
<g>
</g>
<g>
</g>
<g>
</g>
<g>
</g>
<g>
</g>
<g>
</g>
<g>
</g>
<g>
</g>
<g>
</g>
</svg>
