<?xml version="1.0" encoding="utf-8"?>
<!-- Generator: Adobe Illustrator 16.0.4, SVG Export Plug-In . SVG Version: 6.00 Build 0)  -->
<!DOCTYPE svg PUBLIC "-//W3C//DTD SVG 1.1//EN" "http://www.w3.org/Graphics/SVG/1.1/DTD/svg11.dtd">
<svg version="1.1" id="Capa_1" xmlns="http://www.w3.org/2000/svg" xmlns:xlink="http://www.w3.org/1999/xlink" x="0px" y="0px"
	 width="90px" height="107.5px" viewBox="0 -49.5 90 107.5" enable-background="new 0 -49.5 90 107.5" xml:space="preserve">
<g>
	<path d="M2.97-19.322C5.411-18.01,39.211,0.146,40.469,0.822C41.728,1.498,43.358,1.824,45,1.824c1.643,0,3.271-0.326,4.531-1.002
		c1.258-0.676,35.058-18.831,37.498-20.144c2.443-1.311,4.755-5.428,0.268-5.428H2.703C-1.781-24.75,0.527-20.633,2.97-19.322z
		 M88.064-9.322C85.291-7.875,51.229,9.938,49.531,10.822c-1.699,0.887-2.889,1.002-4.531,1.002c-1.642,0-2.832-0.115-4.531-1.002
		C38.771,9.938,4.711-7.875,1.936-9.322C-0.017-10.339,0-9.146,0-8.224c0,0.922,0,36.679,0,36.679c0,2.096,2.792,4.795,4.959,4.795
		h80.082c2.167,0,4.959-2.699,4.959-4.795c0,0,0-35.757,0-36.679C90-9.146,90.02-10.339,88.064-9.322z"/>
</g>
</svg>
