<?xml version="1.0" encoding="iso-8859-1"?>
<!-- Generator: Adobe Illustrator 16.0.0, SVG Export Plug-In . SVG Version: 6.00 Build 0)  -->
<!DOCTYPE svg PUBLIC "-//W3C//DTD SVG 1.1//EN" "http://www.w3.org/Graphics/SVG/1.1/DTD/svg11.dtd">
<svg version="1.1" id="Capa_1" xmlns="http://www.w3.org/2000/svg" xmlns:xlink="http://www.w3.org/1999/xlink" x="0px" y="0px"
	 width="90px" height="90px" viewBox="0 0 90 90" style="enable-background:new 0 0 90 90;" xml:space="preserve">
<path d="M14.999,80c0,5.523,4.477,10,10.001,10s9.999-4.477,9.999-10c0-5.523-4.475-10-9.999-10S14.999,74.477,14.999,80z
	 M64.999,80c0,5.523,4.477,10,10.001,10s9.999-4.477,9.999-10c0-5.523-4.475-10-9.999-10S64.999,74.477,64.999,80z M32.735,56.362
	l55.342-15.812C89.135,40.247,90,39.1,90,38V10.5H19.5V2c0-1.1-0.899-2-2-2H2C0.899,0,0,0.9,0,2v8h9.718l9.839,45.284L20.5,60v7.5
	c0,1.1,0.899,2,2,2H25h50h13c1.101,0,2-0.9,2-2V60H33.761C28.013,60,27.896,57.747,32.735,56.362z"/>
<g>
</g>
<g>
</g>
<g>
</g>
<g>
</g>
<g>
</g>
<g>
</g>
<g>
</g>
<g>
</g>
<g>
</g>
<g>
</g>
<g>
</g>
<g>
</g>
<g>
</g>
<g>
</g>
<g>
</g>
</svg>
