<?xml version="1.0" encoding="iso-8859-1"?>
<!-- Generator: Adobe Illustrator 16.0.0, SVG Export Plug-In . SVG Version: 6.00 Build 0)  -->
<!DOCTYPE svg PUBLIC "-//W3C//DTD SVG 1.1//EN" "http://www.w3.org/Graphics/SVG/1.1/DTD/svg11.dtd">
<svg version="1.1" id="Capa_1" xmlns="http://www.w3.org/2000/svg" xmlns:xlink="http://www.w3.org/1999/xlink" x="0px" y="0px"
	 width="96px" height="96px" viewBox="0 0 96 96" style="enable-background:new 0 0 96 96;" xml:space="preserve">
<path d="M48,0C21.49,0,0,21.49,0,48s21.49,48,48,48s48-21.49,48-48S74.51,0,48,0z M10.916,35.298l15.44,6.834
	c-0.388,1.985-0.601,4.05-0.601,6.182c0,19.162,14.304,24.562,23.303,24.562c5.307,0,9.899-1.713,13.494-4.226
	c0.684-0.49,1.303-0.982,1.871-1.484l-6.997-8.502c-0.205,0.234-0.42,0.457-0.64,0.656C54.065,61.9,51.074,61.9,50.405,61.9
	c-7.253,0-10.324-7.579-10.421-13.736L82.339,66.91C75.664,79.005,62.791,87.2,47.999,87.2C26.35,87.2,8.8,69.649,8.8,48
	C8.8,43.552,9.552,39.282,10.916,35.298z M42.063,38.725c1.564-2.833,4.166-5.075,7.892-5.075c2.16,0,3.873,0.716,5.222,1.619
	c0.561,0.405,1.048,0.81,1.458,1.217l7.815-8.044c-5.249-4.514-11.218-5.32-15.121-5.32c-9.172,0-15.819,4.104-19.645,10.125
	l-14.631-6.476C22.033,15.962,34.176,8.8,47.999,8.8c21.65,0,39.2,17.551,39.2,39.2c0,3.498-0.464,6.887-1.324,10.114L42.063,38.725
	z"/>
<g>
</g>
<g>
</g>
<g>
</g>
<g>
</g>
<g>
</g>
<g>
</g>
<g>
</g>
<g>
</g>
<g>
</g>
<g>
</g>
<g>
</g>
<g>
</g>
<g>
</g>
<g>
</g>
<g>
</g>
</svg>
