<?xml version="1.0" encoding="iso-8859-1"?>
<!-- Generator: Adobe Illustrator 16.0.0, SVG Export Plug-In . SVG Version: 6.00 Build 0)  -->
<!DOCTYPE svg PUBLIC "-//W3C//DTD SVG 1.1//EN" "http://www.w3.org/Graphics/SVG/1.1/DTD/svg11.dtd">
<svg version="1.1" id="Capa_1" xmlns="http://www.w3.org/2000/svg" xmlns:xlink="http://www.w3.org/1999/xlink" x="0px" y="0px"
	 width="92px" height="92px" viewBox="0 0 92 92" style="enable-background:new 0 0 92 92;" xml:space="preserve">
<g>
	<path d="M0,46.002C0,71.406,20.596,92,46,92c25.407,0,46-20.594,46-45.998C92,20.596,71.407,0,46,0C20.596,0,0,20.596,0,46.002z
		 M82,46.002C82,65.883,65.883,82,46,82c-19.882,0-36-16.117-36-35.998C10,26.117,26.118,10,46,10C65.883,10,82,26.117,82,46.002z
		 M26.75,37v18h20.452v11.25L66.25,46L47.202,25.75V37H26.75z"/>
</g>
<g>
</g>
<g>
</g>
<g>
</g>
<g>
</g>
<g>
</g>
<g>
</g>
<g>
</g>
<g>
</g>
<g>
</g>
<g>
</g>
<g>
</g>
<g>
</g>
<g>
</g>
<g>
</g>
<g>
</g>
</svg>
