<?xml version="1.0" encoding="iso-8859-1"?>
<!-- Generator: Adobe Illustrator 16.0.0, SVG Export Plug-In . SVG Version: 6.00 Build 0)  -->
<!DOCTYPE svg PUBLIC "-//W3C//DTD SVG 1.1//EN" "http://www.w3.org/Graphics/SVG/1.1/DTD/svg11.dtd">
<svg version="1.1" id="Capa_1" xmlns="http://www.w3.org/2000/svg" xmlns:xlink="http://www.w3.org/1999/xlink" x="0px" y="0px"
	 width="64px" height="84px" viewBox="0 0 64 84" style="enable-background:new 0 0 64 84;" xml:space="preserve">
<path d="M64,12c0-6.627-5.373-12-12-12c-6.627,0-12,5.373-12,12c0,4.865,2.901,9.045,7.062,10.93
	c-1.137,9.738-7.42,11.705-16.479,14.537c-4.395,1.373-9.511,2.977-13.833,6.082V23.02C21.014,21.178,24,16.939,24,12
	c0-6.627-5.373-12-12-12C5.373,0,0,5.373,0,12c0,4.939,2.986,9.178,7.25,11.02v37.963C2.986,62.822,0,67.061,0,72
	c0,6.627,5.373,12,12,12c6.627,0,12-5.373,12-12c0-4.865-2.9-9.045-7.062-10.928c1.137-9.74,7.42-11.707,16.479-14.537
	c9.22-2.881,21.628-6.762,23.172-23.447C60.938,21.285,64,17,64,12z M5.077,12c0-3.822,3.101-6.922,6.923-6.922
	c3.823,0,6.923,3.1,6.923,6.922c0,3.824-3.1,6.924-6.923,6.924C8.178,18.924,5.077,15.824,5.077,12z M12,78.924
	c-3.822,0-6.923-3.1-6.923-6.924c0-3.822,3.101-6.922,6.923-6.922c3.823,0,6.923,3.1,6.923,6.922
	C18.923,75.824,15.823,78.924,12,78.924z M52,18.924c-3.822,0-6.923-3.1-6.923-6.924c0-3.822,3.101-6.922,6.923-6.922
	c3.823,0,6.923,3.1,6.923,6.922C58.923,15.824,55.823,18.924,52,18.924z"/>
<g>
</g>
<g>
</g>
<g>
</g>
<g>
</g>
<g>
</g>
<g>
</g>
<g>
</g>
<g>
</g>
<g>
</g>
<g>
</g>
<g>
</g>
<g>
</g>
<g>
</g>
<g>
</g>
<g>
</g>
</svg>
