<?xml version="1.0" encoding="iso-8859-1"?>
<!-- Generator: Adobe Illustrator 16.0.0, SVG Export Plug-In . SVG Version: 6.00 Build 0)  -->
<!DOCTYPE svg PUBLIC "-//W3C//DTD SVG 1.1//EN" "http://www.w3.org/Graphics/SVG/1.1/DTD/svg11.dtd">
<svg version="1.1" id="Capa_1" xmlns="http://www.w3.org/2000/svg" xmlns:xlink="http://www.w3.org/1999/xlink" x="0px" y="0px"
	 width="100px" height="60px" viewBox="0 0 100 60" style="enable-background:new 0 0 100 60;" xml:space="preserve">
<path d="M38.061,1.295c-1.836-1.728-4.316-1.728-6.154,0L0,30l31.906,28.703c1.838,1.729,4.318,1.729,6.154,0
	c1.838-1.73,1.838-4.534,0-6.263L13.289,30L38.061,7.559C39.898,5.831,39.898,3.027,38.061,1.295z M68.094,1.295
	c-1.838-1.728-4.316-1.728-6.154,0c-1.838,1.731-1.738,4.535,0.1,6.264L86.711,30l-24.672,22.44c-1.838,1.729-1.938,4.532-0.1,6.263
	c1.838,1.729,4.316,1.729,6.154,0L100,30L68.094,1.295z"/>
<g>
</g>
<g>
</g>
<g>
</g>
<g>
</g>
<g>
</g>
<g>
</g>
<g>
</g>
<g>
</g>
<g>
</g>
<g>
</g>
<g>
</g>
<g>
</g>
<g>
</g>
<g>
</g>
<g>
</g>
</svg>
