<?xml version="1.0" encoding="iso-8859-1"?>
<!-- Generator: Adobe Illustrator 16.0.0, SVG Export Plug-In . SVG Version: 6.00 Build 0)  -->
<!DOCTYPE svg PUBLIC "-//W3C//DTD SVG 1.1//EN" "http://www.w3.org/Graphics/SVG/1.1/DTD/svg11.dtd">
<svg version="1.1" id="Capa_1" xmlns="http://www.w3.org/2000/svg" xmlns:xlink="http://www.w3.org/1999/xlink" x="0px" y="0px"
	 width="84px" height="84px" viewBox="0 0 84 84" style="enable-background:new 0 0 84 84;" xml:space="preserve">
<g>
	<path d="M75.921,42c0-5.237,3.224-9.372,8.079-12.213c-0.874-2.923-2.033-5.723-3.459-8.36c-5.444,1.425-9.851-0.708-13.555-4.412
		s-4.838-8.112-3.413-13.555C60.938,2.033,58.138,0.874,55.213,0C52.371,4.856,47.238,8.079,42,8.079
		c-5.237,0-10.37-3.223-13.213-8.079c-2.923,0.873-5.723,2.033-8.359,3.458c1.424,5.444,0.291,9.852-3.413,13.557
		c-3.704,3.704-8.112,5.837-13.556,4.414C2.033,24.063,0.874,26.863,0,29.787C4.855,32.628,8.079,36.763,8.079,42
		S4.855,52.371,0,55.212c0.874,2.924,2.033,5.724,3.459,8.361c5.444-1.425,9.852-0.291,13.556,3.413
		c3.703,3.705,4.837,8.111,3.413,13.555c2.636,1.425,5.436,2.586,8.36,3.458c2.843-4.855,7.975-8.08,13.212-8.08
		c5.238,0,10.371,3.225,13.213,8.08c2.925-0.874,5.725-2.033,8.361-3.46c-1.424-5.442-0.292-9.849,3.412-13.554
		c3.704-3.704,8.111-5.838,13.555-4.413c1.426-2.637,2.585-5.437,3.459-8.361C79.145,51.371,75.921,47.237,75.921,42z M42,60.266
		c-10.087,0-18.265-8.178-18.265-18.266c0-10.088,8.177-18.266,18.265-18.266c10.088,0,18.265,8.178,18.265,18.266
		C60.265,52.087,52.088,60.266,42,60.266z"/>
</g>
<g>
</g>
<g>
</g>
<g>
</g>
<g>
</g>
<g>
</g>
<g>
</g>
<g>
</g>
<g>
</g>
<g>
</g>
<g>
</g>
<g>
</g>
<g>
</g>
<g>
</g>
<g>
</g>
<g>
</g>
</svg>
