<?xml version="1.0" encoding="iso-8859-1"?>
<!-- Generator: Adobe Illustrator 16.0.0, SVG Export Plug-In . SVG Version: 6.00 Build 0)  -->
<!DOCTYPE svg PUBLIC "-//W3C//DTD SVG 1.1//EN" "http://www.w3.org/Graphics/SVG/1.1/DTD/svg11.dtd">
<svg version="1.1" id="Capa_1" xmlns="http://www.w3.org/2000/svg" xmlns:xlink="http://www.w3.org/1999/xlink" x="0px" y="0px"
	 width="96px" height="96px" viewBox="0 0 96 96" style="enable-background:new 0 0 96 96;" xml:space="preserve">
<path d="M48,0C21.49,0,0,21.49,0,48s21.49,48,48,48s48-21.49,48-48S74.51,0,48,0z M10.547,36.397l24.433,10.879h-5.405v7.474h11.244
	l1.099,2.279v3.621H29.574v7.471h12.343v10.852h11.944V68.121h12.423v-6.905l15.388,6.854C74.829,79.525,62.313,87.2,47.999,87.2
	C26.35,87.2,8.8,69.649,8.8,48C8.8,43.96,9.412,40.063,10.547,36.397z M53.864,60.65v-3.621l0.562-1.09l10.589,4.711H53.864z
	 M66.284,50.713v-3.437h-7.469l12.188-22.453H58.265l-8.391,18.583l-4.456-1.983l-7.667-16.6H25.013l5.285,9.867L14.49,27.65
	C21.368,16.349,33.802,8.8,47.999,8.8c21.65,0,39.2,17.551,39.2,39.2c0,3.925-0.584,7.712-1.657,11.286L66.284,50.713z"/>
<g>
</g>
<g>
</g>
<g>
</g>
<g>
</g>
<g>
</g>
<g>
</g>
<g>
</g>
<g>
</g>
<g>
</g>
<g>
</g>
<g>
</g>
<g>
</g>
<g>
</g>
<g>
</g>
<g>
</g>
</svg>
