<?xml version="1.0" encoding="iso-8859-1"?>
<!-- Generator: Adobe Illustrator 16.0.0, SVG Export Plug-In . SVG Version: 6.00 Build 0)  -->
<!DOCTYPE svg PUBLIC "-//W3C//DTD SVG 1.1//EN" "http://www.w3.org/Graphics/SVG/1.1/DTD/svg11.dtd">
<svg version="1.1" id="Capa_1" xmlns="http://www.w3.org/2000/svg" xmlns:xlink="http://www.w3.org/1999/xlink" x="0px" y="0px"
	 width="72.505px" height="100px" viewBox="0 0 72.505 100" style="enable-background:new 0 0 72.505 100;" xml:space="preserve">
<g>
	<path d="M54.557,60.938c6.32-0.168,12.021-3.508,15.377-9.318c5.295-9.174,2.291-20.23-7.898-26.113l-6.391-3.691L66.34,3.287
		L60.645,0L39.971,35.801c-1.611-3.973-4.695-7.547-9.162-10.123l-12.088-6.98L0,51.119l12.088,6.98
		c4.469,2.578,9.115,3.445,13.373,2.836L4.805,96.711L10.502,100l10.697-18.527l6.391,3.689c10.191,5.885,21.324,2.863,26.619-6.309
		C57.564,73.041,57.584,66.471,54.557,60.938z M59.041,30.693c6.809,3.93,8.555,11.176,4.863,17.566
		c-3.689,6.395-10.783,8.412-17.592,4.48L40.002,49.1c0.07-0.18,0.135-0.361,0.197-0.539L52.65,27.002L59.041,30.693z M15.084,52.91
		l-6.391-3.689L21.42,27.172l6.395,3.691c6.809,3.932,8.553,11.178,4.863,17.57C28.986,54.824,21.893,56.844,15.084,52.91z
		 M30.586,79.977l-6.393-3.691l12.461-21.584c0.117-0.139,0.234-0.275,0.348-0.418l6.314,3.645c6.809,3.93,8.555,11.178,4.865,17.57
		C44.49,81.889,37.395,83.908,30.586,79.977z"/>
</g>
<g>
</g>
<g>
</g>
<g>
</g>
<g>
</g>
<g>
</g>
<g>
</g>
<g>
</g>
<g>
</g>
<g>
</g>
<g>
</g>
<g>
</g>
<g>
</g>
<g>
</g>
<g>
</g>
<g>
</g>
</svg>
