<?xml version="1.0" encoding="iso-8859-1"?>
<!-- Generator: Adobe Illustrator 16.0.0, SVG Export Plug-In . SVG Version: 6.00 Build 0)  -->
<!DOCTYPE svg PUBLIC "-//W3C//DTD SVG 1.1//EN" "http://www.w3.org/Graphics/SVG/1.1/DTD/svg11.dtd">
<svg version="1.1" id="Capa_1" xmlns="http://www.w3.org/2000/svg" xmlns:xlink="http://www.w3.org/1999/xlink" x="0px" y="0px"
	 width="96px" height="96px" viewBox="0 0 96 96" style="enable-background:new 0 0 96 96;" xml:space="preserve">
<g>
	<path d="M47.358,0.004C20.851,0.36-0.35,22.135,0.004,48.642c0.354,26.507,22.13,47.709,48.637,47.354
		c26.507-0.354,47.709-22.129,47.354-48.638C95.641,20.852,73.864-0.35,47.358,0.004z M48.506,85.892
		C27.58,86.17,10.389,69.434,10.108,48.506C9.829,27.581,26.567,10.389,47.494,10.11C68.42,9.829,85.612,26.566,85.891,47.493
		C86.17,68.42,69.433,85.611,48.506,85.892z M25.263,70.524c0,0,22.845-3.14,32.591-12.885c9.744-9.745,12.883-32.589,12.883-32.589
		s-22.844,3.139-32.588,12.883C28.403,47.679,25.263,70.524,25.263,70.524z M43.075,42.86c4.096-4.097,11.93-7.004,18.646-8.81
		c-1.809,6.706-4.729,14.597-8.796,18.663c-2.719,2.72-7.13,2.722-9.851,0C40.353,49.993,40.353,45.581,43.075,42.86z"/>
</g>
<g>
</g>
<g>
</g>
<g>
</g>
<g>
</g>
<g>
</g>
<g>
</g>
<g>
</g>
<g>
</g>
<g>
</g>
<g>
</g>
<g>
</g>
<g>
</g>
<g>
</g>
<g>
</g>
<g>
</g>
</svg>
