<?xml version="1.0" encoding="iso-8859-1"?>
<!-- Generator: Adobe Illustrator 16.0.0, SVG Export Plug-In . SVG Version: 6.00 Build 0)  -->
<!DOCTYPE svg PUBLIC "-//W3C//DTD SVG 1.1//EN" "http://www.w3.org/Graphics/SVG/1.1/DTD/svg11.dtd">
<svg version="1.1" id="Capa_1" xmlns="http://www.w3.org/2000/svg" xmlns:xlink="http://www.w3.org/1999/xlink" x="0px" y="0px"
	 width="96px" height="96px" viewBox="0 0 96 96" style="enable-background:new 0 0 96 96;" xml:space="preserve">
<path d="M49.297,47.914c0.172-0.054,0.343-0.106,0.515-0.157c-0.414-0.928-0.873-1.886-1.395-2.915
	c-9.4,2.776-18.399,2.812-20.008,2.784c-0.004,0.124-0.008,0.249-0.008,0.374c0,4.728,1.698,9.271,4.79,12.835
	C34.223,59.173,39.68,51.025,49.297,47.914z M60.775,33.144c-3.554-3.059-8.081-4.741-12.775-4.741
	c-1.419,0-2.846,0.156-4.248,0.466c1.024,1.381,4.161,5.736,7.106,11.112C57.267,37.526,60.166,33.97,60.775,33.144z M36.118,63.567
	C39.567,66.206,43.672,67.6,48,67.6c2.584,0,5.096-0.496,7.469-1.475c-0.331-1.903-1.474-7.7-4.107-14.605
	C40.754,55.269,36.754,62.325,36.118,63.567z M46.524,41.325c-3.039-5.36-6.203-9.775-7.071-10.962
	c-5.337,2.592-9.262,7.533-10.567,13.298h0.081C30.999,43.661,38.213,43.491,46.524,41.325z M55.566,50.487
	c2.324,6.457,3.396,11.832,3.703,13.548c4.257-2.998,7.172-7.602,8.045-12.712c-0.868-0.26-4.006-1.107-7.955-1.107
	C58.063,50.216,56.789,50.307,55.566,50.487z M48,0C21.489,0,0,21.49,0,48c0,26.511,21.489,48,48,48s48-21.489,48-48
	C96,21.49,74.511,0,48,0z M48,71.492c-12.954,0-23.492-10.538-23.492-23.492S35.046,24.508,48,24.508S71.492,35.046,71.492,48
	S60.954,71.492,48,71.492z M52.611,43.378c0.433,0.893,0.839,1.783,1.209,2.651c0.121,0.283,0.24,0.568,0.356,0.852
	c1.387-0.166,2.87-0.25,4.41-0.25c4.265,0,7.818,0.627,9.001,0.862c-0.11-4.251-1.612-8.381-4.253-11.694
	C62.53,36.825,59.238,40.612,52.611,43.378z"/>
<g>
</g>
<g>
</g>
<g>
</g>
<g>
</g>
<g>
</g>
<g>
</g>
<g>
</g>
<g>
</g>
<g>
</g>
<g>
</g>
<g>
</g>
<g>
</g>
<g>
</g>
<g>
</g>
<g>
</g>
</svg>
