<?xml version="1.0" encoding="iso-8859-1"?>
<!-- Generator: Adobe Illustrator 16.0.0, SVG Export Plug-In . SVG Version: 6.00 Build 0)  -->
<!DOCTYPE svg PUBLIC "-//W3C//DTD SVG 1.1//EN" "http://www.w3.org/Graphics/SVG/1.1/DTD/svg11.dtd">
<svg version="1.1" id="Capa_1" xmlns="http://www.w3.org/2000/svg" xmlns:xlink="http://www.w3.org/1999/xlink" x="0px" y="0px"
	 width="93.999px" height="94px" viewBox="0 0 93.999 94" style="enable-background:new 0 0 93.999 94;" xml:space="preserve">
<path d="M21.529,54.711L39.288,72.47l32.583-32.583L54.113,22.128L21.529,54.711z M92.522,30.321l-7.556-7.557
	c-1.439,0.784-3.088,1.231-4.841,1.231c-5.591,0-10.123-4.532-10.123-10.122c0-1.753,0.448-3.402,1.232-4.841l-7.557-7.557
	c-1.969-1.969-5.188-1.969-7.157,0L1.476,56.522c-1.968,1.968-1.968,5.188,0,7.156l7.558,7.557c1.438-0.784,3.088-1.23,4.841-1.23
	c5.591,0,10.122,4.53,10.122,10.121c0,1.753-0.447,3.402-1.232,4.842l7.557,7.557c1.969,1.968,5.189,1.968,7.158,0l55.044-55.046
	C94.491,35.51,94.491,32.29,92.522,30.321z M39.288,80.593l-25.88-25.882l40.707-40.705l25.879,25.881L39.288,80.593z"/>
<g>
</g>
<g>
</g>
<g>
</g>
<g>
</g>
<g>
</g>
<g>
</g>
<g>
</g>
<g>
</g>
<g>
</g>
<g>
</g>
<g>
</g>
<g>
</g>
<g>
</g>
<g>
</g>
<g>
</g>
</svg>
