<?xml version="1.0" encoding="iso-8859-1"?>
<!-- Generator: Adobe Illustrator 16.0.0, SVG Export Plug-In . SVG Version: 6.00 Build 0)  -->
<!DOCTYPE svg PUBLIC "-//W3C//DTD SVG 1.1//EN" "http://www.w3.org/Graphics/SVG/1.1/DTD/svg11.dtd">
<svg version="1.1" id="Capa_1" xmlns="http://www.w3.org/2000/svg" xmlns:xlink="http://www.w3.org/1999/xlink" x="0px" y="0px"
	 width="80px" height="80px" viewBox="0 0 80 80" style="enable-background:new 0 0 80 80;" xml:space="preserve">
<path d="M17.99,32.709c0-8.184,2.172-13.391,9.445-14.559c2.541-0.498,7.832-0.324,11.195-0.324v12.5
	c0,0.113,0.016,0.316,0.043,0.422c0.141,0.504,0.6,0.875,1.141,0.877c0.306,0,0.594-0.158,0.89-0.449l31.18-31.172L50.955,0H27.742
	C9.373,0,0,10.58,0,30.33V71.77l17.99-18.01V32.709z M62.008,26.242v21.049c0,8.184-2.17,13.391-9.445,14.559
	c-2.541,0.498-7.83,0.324-11.193,0.324v-12.5c0-0.113-0.016-0.316-0.043-0.42c-0.143-0.506-0.6-0.877-1.143-0.879
	c-0.307,0-0.592,0.158-0.891,0.451l-31.18,31.17L29.043,80h23.213C70.625,80,80,69.422,80,49.67V8.23L62.008,26.242z"/>
<g>
</g>
<g>
</g>
<g>
</g>
<g>
</g>
<g>
</g>
<g>
</g>
<g>
</g>
<g>
</g>
<g>
</g>
<g>
</g>
<g>
</g>
<g>
</g>
<g>
</g>
<g>
</g>
<g>
</g>
</svg>
