<?xml version="1.0" encoding="iso-8859-1"?>
<!-- Generator: Adobe Illustrator 16.0.0, SVG Export Plug-In . SVG Version: 6.00 Build 0)  -->
<!DOCTYPE svg PUBLIC "-//W3C//DTD SVG 1.1//EN" "http://www.w3.org/Graphics/SVG/1.1/DTD/svg11.dtd">
<svg version="1.1" id="Capa_1" xmlns="http://www.w3.org/2000/svg" xmlns:xlink="http://www.w3.org/1999/xlink" x="0px" y="0px"
	 width="92.001px" height="92px" viewBox="0 0 92.001 92" style="enable-background:new 0 0 92.001 92;" xml:space="preserve">
<g>
	<path d="M45.385,0.004C19.983,0.343-0.333,21.211,0.004,46.614c0.34,25.406,21.209,45.721,46.609,45.381
		c25.404-0.338,45.721-21.207,45.383-46.609C91.655,19.979,70.786-0.335,45.385,0.004z M45.465,6.003
		c6.852-0.092,13.322,1.547,19,4.507L58.274,20.83C54.567,19.019,50.403,18,46,18c-4.404,0-8.568,1.02-12.275,2.83l-6.188-10.312
		C32.909,7.717,38.994,6.088,45.465,6.003z M20.831,58.274L10.518,64.46C7.719,59.09,6.09,53.004,6.004,46.535
		c-0.092-6.851,1.547-13.322,4.508-19l10.318,6.192C19.02,37.433,18,41.597,18,46S19.02,54.568,20.831,58.274z M46.536,85.996
		c-6.852,0.091-13.322-1.548-19-4.509l6.191-10.318C37.432,72.98,41.596,74,46,74c4.402,0,8.566-1.019,12.271-2.83l6.188,10.312
		C59.09,84.282,53.004,85.909,46.536,85.996z M46,68c-12.15,0-22-9.85-22-22s9.85-22,22-22s22,9.85,22,22S58.151,68,46,68z
		 M71.17,58.274C72.981,54.568,74,50.403,74,46s-1.02-8.567-2.83-12.272l10.312-6.188c2.799,5.372,4.428,11.456,4.514,17.925
		c0.092,6.853-1.549,13.323-4.51,19.001L71.17,58.274z"/>
</g>
<g>
</g>
<g>
</g>
<g>
</g>
<g>
</g>
<g>
</g>
<g>
</g>
<g>
</g>
<g>
</g>
<g>
</g>
<g>
</g>
<g>
</g>
<g>
</g>
<g>
</g>
<g>
</g>
<g>
</g>
</svg>
