<?xml version="1.0" encoding="iso-8859-1"?>
<!-- Generator: Adobe Illustrator 16.0.0, SVG Export Plug-In . SVG Version: 6.00 Build 0)  -->
<!DOCTYPE svg PUBLIC "-//W3C//DTD SVG 1.1//EN" "http://www.w3.org/Graphics/SVG/1.1/DTD/svg11.dtd">
<svg version="1.1" id="Capa_1" xmlns="http://www.w3.org/2000/svg" xmlns:xlink="http://www.w3.org/1999/xlink" x="0px" y="0px"
	 width="88.148px" height="88.148px" viewBox="0 0 88.148 88.148" style="enable-background:new 0 0 88.148 88.148;"
	 xml:space="preserve">
<g>
	<path d="M86.684,1.465c-1.951-1.953-5.119-1.953-7.07,0L1.465,79.613c-1.953,1.953-1.953,5.119,0,7.07
		C2.441,87.66,3.721,88.148,5,88.148s2.561-0.488,3.535-1.465L86.684,8.535C88.637,6.582,88.637,3.416,86.684,1.465z M65.078,40.041
		c6.947,9.418,9.094,17.596,7.795,18.895c-1.297,1.289-9.469-0.854-18.891-7.799L26.348,78.771
		c20.93,9.189,48.137-10.08,53.029-14.973c4.625-4.613,0.484-16.551-9.283-28.775L65.078,40.041z M37.408,33.771
		c-5.492-8.289-7.15-15.115-5.973-16.293c1.168-1.178,7.998,0.48,16.285,5.98l5.117-5.119C41.52,9.969,30.867,6.67,26.557,10.99
		c-4.643,4.631-22.242,29.385-16.158,49.789L37.408,33.771z"/>
</g>
<g>
</g>
<g>
</g>
<g>
</g>
<g>
</g>
<g>
</g>
<g>
</g>
<g>
</g>
<g>
</g>
<g>
</g>
<g>
</g>
<g>
</g>
<g>
</g>
<g>
</g>
<g>
</g>
<g>
</g>
</svg>
