<?xml version="1.0" encoding="iso-8859-1"?>
<!-- Generator: Adobe Illustrator 16.0.0, SVG Export Plug-In . SVG Version: 6.00 Build 0)  -->
<!DOCTYPE svg PUBLIC "-//W3C//DTD SVG 1.1//EN" "http://www.w3.org/Graphics/SVG/1.1/DTD/svg11.dtd">
<svg version="1.1" id="Capa_1" xmlns="http://www.w3.org/2000/svg" xmlns:xlink="http://www.w3.org/1999/xlink" x="0px" y="0px"
	 width="100px" height="80px" viewBox="0 0 100 80" style="enable-background:new 0 0 100 80;" xml:space="preserve">
<g>
	<path d="M98.413,15.119L75.047,0.486c-1.035-0.648-2.33-0.648-3.365,0L50,14.066L28.318,0.486c-1.035-0.648-2.33-0.648-3.366,0
		L1.588,15.119C0.604,15.736,0,16.848,0,18.047v58.537c0,1.23,0.635,2.365,1.66,2.972c1.025,0.605,2.283,0.59,3.295-0.043
		l21.682-13.579l21.68,13.579c1.037,0.648,2.33,0.648,3.367,0l21.682-13.579l21.682,13.579c0.518,0.324,1.1,0.487,1.682,0.487
		c0.557,0,1.111-0.148,1.613-0.444c1.025-0.606,1.658-1.741,1.658-2.972V18.047C100,16.848,99.397,15.736,98.413,15.119z
		 M23.365,60.017L6.543,70.554V19.98L23.365,9.444V60.017z M46.729,70.554L29.907,60.017V9.444l16.822,10.537V70.554z
		 M70.094,60.017L53.272,70.554V19.981L70.094,9.444V60.017z M93.459,70.554L76.637,60.017V9.444L93.459,19.98V70.554z"/>
</g>
<g>
</g>
<g>
</g>
<g>
</g>
<g>
</g>
<g>
</g>
<g>
</g>
<g>
</g>
<g>
</g>
<g>
</g>
<g>
</g>
<g>
</g>
<g>
</g>
<g>
</g>
<g>
</g>
<g>
</g>
</svg>
