<?xml version="1.0" encoding="iso-8859-1"?>
<!-- Generator: Adobe Illustrator 16.0.0, SVG Export Plug-In . SVG Version: 6.00 Build 0)  -->
<!DOCTYPE svg PUBLIC "-//W3C//DTD SVG 1.1//EN" "http://www.w3.org/Graphics/SVG/1.1/DTD/svg11.dtd">
<svg version="1.1" id="Capa_1" xmlns="http://www.w3.org/2000/svg" xmlns:xlink="http://www.w3.org/1999/xlink" x="0px" y="0px"
	 width="96px" height="96px" viewBox="0 0 96 96" style="enable-background:new 0 0 96 96;" xml:space="preserve">
<path d="M43.484,34.425c-1.209-4.248-3.158-5.505-6.191-5.505c-0.328,0-0.656,0.045-0.973,0.135
	c-1.312,0.369-2.355,1.467-2.938,3.094c-0.592,1.653-0.633,3.373-0.117,5.34c0.922,3.501,3.412,6.043,5.924,6.043
	c0.33,0,0.656-0.045,0.971-0.134C42.904,42.625,44.623,38.434,43.484,34.425z M48,0C21.49,0,0,21.49,0,48c0,26.511,21.49,48,48,48
	c26.512,0,48-21.489,48-48C96,21.49,74.512,0,48,0z M45.234,68.609c-3.014,1.465-6.262,1.623-7.518,1.623
	c-0.238,0-0.377-0.006-0.398-0.006c0,0-0.09,0.002-0.244,0.002c-1.957,0-11.713-0.45-11.713-9.336
	c0-8.731,10.623-9.412,13.879-9.412l0.086,0.001c-1.881-2.509-1.49-5.044-1.49-5.044c-0.166,0.012-0.406,0.023-0.703,0.023
	c-1.227,0-3.59-0.196-5.623-1.508c-2.486-1.6-3.746-4.324-3.746-8.098c0-10.652,11.633-11.084,11.748-11.086h11.619v0.252
	c0,1.301-2.332,1.548-3.926,1.766c-0.537,0.074-1.621,0.188-1.928,0.346c2.941,1.568,3.418,4.039,3.418,7.721
	c0,4.188-1.641,6.404-3.381,7.961c-1.074,0.962-1.924,1.722-1.924,2.732c0,0.992,1.164,2.014,2.51,3.195
	c2.207,1.939,5.23,4.593,5.23,9.052C51.131,63.408,49.146,66.71,45.234,68.609z M70.639,47.955h-7.578v7.579H58.26v-7.579h-7.578
	v-4.8h7.578v-7.579h4.801v7.579h7.578V47.955z M39.113,53.758c-0.26,0-0.521,0.01-0.783,0.026c-2.223,0.164-4.268,0.995-5.756,2.344
	c-1.469,1.331-2.219,3.003-2.111,4.708c0.223,3.549,4.039,5.635,8.674,5.297c4.564-0.332,7.604-2.954,7.381-6.508
	C46.307,56.279,43.402,53.758,39.113,53.758z"/>
<g>
</g>
<g>
</g>
<g>
</g>
<g>
</g>
<g>
</g>
<g>
</g>
<g>
</g>
<g>
</g>
<g>
</g>
<g>
</g>
<g>
</g>
<g>
</g>
<g>
</g>
<g>
</g>
<g>
</g>
</svg>
