<?xml version="1.0" encoding="iso-8859-1"?>
<!-- Generator: Adobe Illustrator 16.0.0, SVG Export Plug-In . SVG Version: 6.00 Build 0)  -->
<!DOCTYPE svg PUBLIC "-//W3C//DTD SVG 1.1//EN" "http://www.w3.org/Graphics/SVG/1.1/DTD/svg11.dtd">
<svg version="1.1" id="Capa_1" xmlns="http://www.w3.org/2000/svg" xmlns:xlink="http://www.w3.org/1999/xlink" x="0px" y="0px"
	 width="56px" height="100px" viewBox="0 0 56 100" style="enable-background:new 0 0 56 100;" xml:space="preserve">
<g>
	<path d="M56,22.888c0-10.699,0-11.745,0-11.745C56,7.198,43.464,0,28,0C12.535,0,0,7.198,0,11.143c0,0,0,1.045,0,11.745
		C0,33.586,19.384,42.425,19.384,50S0,66.413,0,77.112s0,11.746,0,11.746C0,92.802,12.535,100,28,100c15.464,0,28-7.198,28-11.142
		c0,0,0-1.046,0-11.746S36.616,57.575,36.616,50S56,33.586,56,22.888z M7.703,11.643c3.479-2.195,10.002-5.412,20.57-5.412
		c10.569,0,20.031,5.412,20.031,5.412c0.707,0.43,3.49,1.918,1.586,3.045C45.697,17.171,37.498,19.787,28,19.787
		s-17.423-2.883-21.617-5.367C4.479,13.292,7.703,11.643,7.703,11.643z M30.507,50c0,5.965,4.979,9.807,10.255,14.933
		c3.854,3.745,9.129,8.873,9.129,12.179v6.641c-4.846-2.416-19.357-4.78-19.357-12.519c0-3.919-5.066-3.919-5.066,0
		c0,7.739-14.512,10.103-19.357,12.519v-6.641c0-3.307,5.275-8.434,9.129-12.179C20.512,59.807,25.493,55.965,25.493,50
		s-4.981-9.806-10.255-14.932c-3.854-3.746-9.129-8.874-9.129-12.18L5.873,17.89c5.131,2.762,13.263,5.397,22.127,5.397
		s17.034-2.635,22.164-5.397l-0.273,4.998c0,3.307-5.275,8.435-9.129,12.18C35.486,40.194,30.507,44.035,30.507,50z"/>
</g>
<g>
</g>
<g>
</g>
<g>
</g>
<g>
</g>
<g>
</g>
<g>
</g>
<g>
</g>
<g>
</g>
<g>
</g>
<g>
</g>
<g>
</g>
<g>
</g>
<g>
</g>
<g>
</g>
<g>
</g>
</svg>
