<?xml version="1.0" encoding="iso-8859-1"?>
<!-- Generator: Adobe Illustrator 16.0.0, SVG Export Plug-In . SVG Version: 6.00 Build 0)  -->
<!DOCTYPE svg PUBLIC "-//W3C//DTD SVG 1.1//EN" "http://www.w3.org/Graphics/SVG/1.1/DTD/svg11.dtd">
<svg version="1.1" id="Capa_1" xmlns="http://www.w3.org/2000/svg" xmlns:xlink="http://www.w3.org/1999/xlink" x="0px" y="0px"
	 width="100px" height="100.001px" viewBox="0 0 100 100.001" style="enable-background:new 0 0 100 100.001;" xml:space="preserve"
	>
<path d="M96.989,37.07l-37.224-9.974L53.251,2.785c-0.545-2.031-2.721-3.213-4.859-2.641L3.011,12.305
	c-2.139,0.572-3.43,2.685-2.887,4.716l16.146,60.257c0.545,2.033,2.72,3.216,4.857,2.643l18.065-4.841l-2.464,9.193
	c-0.545,2.033,0.747,4.145,2.886,4.719l40.551,10.865c2.139,0.572,4.314-0.609,4.859-2.643l14.851-55.427
	C100.421,39.756,99.128,37.643,96.989,37.07z M8.168,18.157L47.315,7.681L61.81,61.772L22.661,72.249L8.168,18.157z M78.394,92.321
	l-34.078-9.318L47,72.987l19.509-5.228c2.139-0.573,3.433-2.685,2.888-4.718l-7.539-28.138l29.735,8.154L78.394,92.321z"/>
<g>
</g>
<g>
</g>
<g>
</g>
<g>
</g>
<g>
</g>
<g>
</g>
<g>
</g>
<g>
</g>
<g>
</g>
<g>
</g>
<g>
</g>
<g>
</g>
<g>
</g>
<g>
</g>
<g>
</g>
</svg>
