<?xml version="1.0" encoding="utf-8"?>
<!-- Generator: Adobe Illustrator 16.0.4, SVG Export Plug-In . SVG Version: 6.00 Build 0)  -->
<!DOCTYPE svg PUBLIC "-//W3C//DTD SVG 1.1//EN" "http://www.w3.org/Graphics/SVG/1.1/DTD/svg11.dtd">
<svg version="1.1" id="Capa_1" xmlns="http://www.w3.org/2000/svg" xmlns:xlink="http://www.w3.org/1999/xlink" x="0px" y="0px"
	 width="100px" height="117px" viewBox="0 0 100 117" enable-background="new 0 0 100 117" xml:space="preserve">
<path d="M96.693,53.711c-1.961-2.083-11.422-11.358-15.748-15.592C79.62,36.825,77.721,36,75.734,36C73.747,36,50,36,50,36
	s-23.749,0-25.734,0s-3.886,0.825-5.211,2.119C14.729,42.354,5.267,51.628,3.307,53.711c-2.445,2.6-3.787,4.675-3.148,7.246
	l2.805,15.369C3.6,78.896,6.416,81,9.221,81h81.558c2.806,0,5.621-2.104,6.259-4.673l2.805-15.369
	C100.48,58.387,99.139,56.312,96.693,53.711z M70.238,57.043c-0.508,0-0.969,0.257-1.196,0.664l-4.085,10.175H35.043l-4.085-10.175
	c-0.229-0.407-0.689-0.664-1.197-0.664H12.039L22.241,45.5h55.518l10.202,11.543H70.238z"/>
</svg>
