<?xml version="1.0" encoding="iso-8859-1"?>
<!-- Generator: Adobe Illustrator 16.0.0, SVG Export Plug-In . SVG Version: 6.00 Build 0)  -->
<!DOCTYPE svg PUBLIC "-//W3C//DTD SVG 1.1//EN" "http://www.w3.org/Graphics/SVG/1.1/DTD/svg11.dtd">
<svg version="1.1" id="Capa_1" xmlns="http://www.w3.org/2000/svg" xmlns:xlink="http://www.w3.org/1999/xlink" x="0px" y="0px"
	 width="96px" height="96px" viewBox="0 0 96 96" style="enable-background:new 0 0 96 96;" xml:space="preserve">
<path d="M48,0C21.488,0,0,21.49,0,48c0,26.511,21.488,48,48,48c26.51,0,48-21.489,48-48C96,21.49,74.51,0,48,0z M61.225,62.148
	c-10.014,0-13.486-4.55-15.336-10.209l-1.854-5.834c-1.389-4.26-2.504-7.333-7.598-7.333c-3.531,0-8.129,2.314-8.129,9.491
	c0,5.601,3.846,9.102,7.84,9.102c3.387,0,5.42-1.904,6.479-2.855l1.771,5.053c-1.207,0.876-3.676,2.586-8.539,2.586
	c-6.725,0-13.123-4.783-13.123-13.652c0-9.217,6.664-14.643,13.527-14.643c7.697,0,10.566,2.801,12.996,10.385l1.91,5.833
	c1.389,4.259,4.324,7.352,10.17,7.352c3.936,0,6.02-0.876,6.02-3.033c0-1.692-0.984-2.917-3.936-3.618l-3.936-0.933
	c-4.805-1.167-6.713-3.676-6.713-7.644c0-6.358,5.092-8.342,10.301-8.342c5.904,0,9.492,2.158,9.955,7.408l-5.787,0.7
	c-0.232-2.508-1.736-3.559-4.516-3.559c-2.547,0-4.109,1.167-4.109,3.15c0,1.751,0.752,2.801,3.301,3.385l3.703,0.815
	c4.977,1.168,7.641,3.618,7.641,8.344C73.264,59.932,68.402,62.148,61.225,62.148z"/>
<g>
</g>
<g>
</g>
<g>
</g>
<g>
</g>
<g>
</g>
<g>
</g>
<g>
</g>
<g>
</g>
<g>
</g>
<g>
</g>
<g>
</g>
<g>
</g>
<g>
</g>
<g>
</g>
<g>
</g>
</svg>
