<?xml version="1.0" encoding="iso-8859-1"?>
<!-- Generator: Adobe Illustrator 16.0.0, SVG Export Plug-In . SVG Version: 6.00 Build 0)  -->
<!DOCTYPE svg PUBLIC "-//W3C//DTD SVG 1.1//EN" "http://www.w3.org/Graphics/SVG/1.1/DTD/svg11.dtd">
<svg version="1.1" id="Capa_1" xmlns="http://www.w3.org/2000/svg" xmlns:xlink="http://www.w3.org/1999/xlink" x="0px" y="0px"
	 width="100px" height="80px" viewBox="0 0 100 80" style="enable-background:new 0 0 100 80;" xml:space="preserve">
<g>
	<path d="M90,0H10C4.5,0,0,4.5,0,10v60c0,5.5,4.5,10,10,10h80c5.5,0,10-4.5,10-10V10C100,4.5,95.5,0,90,0z M90,70H10V10h80V70z
		 M45,50.5H20v9h25V50.5z M45,35.5H20v9h25V35.5z M45,20.5H20v9h25V20.5z M79.5,52.5c0,0-8.5-2.224-8.5-6.589
		C71,41.75,76.5,40,76.5,31.5c0-6.903-2.098-11-9-11c-6.904,0-9,4.097-9,11c0,8.5,5.498,10.25,5.498,14.411
		c0,4.365-8.498,6.589-8.498,6.589c-0.5,0-0.5,7-0.5,7h25C80,59.5,80,52.5,79.5,52.5z"/>
</g>
<g>
</g>
<g>
</g>
<g>
</g>
<g>
</g>
<g>
</g>
<g>
</g>
<g>
</g>
<g>
</g>
<g>
</g>
<g>
</g>
<g>
</g>
<g>
</g>
<g>
</g>
<g>
</g>
<g>
</g>
</svg>
