<?xml version="1.0" encoding="iso-8859-1"?>
<!-- Generator: Adobe Illustrator 16.0.0, SVG Export Plug-In . SVG Version: 6.00 Build 0)  -->
<!DOCTYPE svg PUBLIC "-//W3C//DTD SVG 1.1//EN" "http://www.w3.org/Graphics/SVG/1.1/DTD/svg11.dtd">
<svg version="1.1" id="Capa_1" xmlns="http://www.w3.org/2000/svg" xmlns:xlink="http://www.w3.org/1999/xlink" x="0px" y="0px"
	 width="70px" height="90px" viewBox="0 0 70 90" style="enable-background:new 0 0 70 90;" xml:space="preserve">
<g>
	<path d="M64,35h-9V23C55,8.514,48.329,0,35,0S15,8.514,15,23v2h10v-4c0-7.225,3.986-11,10-11s10,3.775,10,11v14H5
		c-2.762,0-5,3.238-5,6v39c0,2.75,2.142,5.69,4.759,6.535l5.982,1.93C13.358,89.31,17.75,90,20.5,90h29
		c2.75,0,7.141-0.69,9.758-1.535l5.982-1.93C67.858,85.69,70,82.75,70,80V41C70,38.238,66.762,35,64,35z"/>
</g>
<g>
</g>
<g>
</g>
<g>
</g>
<g>
</g>
<g>
</g>
<g>
</g>
<g>
</g>
<g>
</g>
<g>
</g>
<g>
</g>
<g>
</g>
<g>
</g>
<g>
</g>
<g>
</g>
<g>
</g>
</svg>
