<?xml version="1.0" encoding="iso-8859-1"?>
<!-- Generator: Adobe Illustrator 16.0.0, SVG Export Plug-In . SVG Version: 6.00 Build 0)  -->
<!DOCTYPE svg PUBLIC "-//W3C//DTD SVG 1.1//EN" "http://www.w3.org/Graphics/SVG/1.1/DTD/svg11.dtd">
<svg version="1.1" id="Capa_1" xmlns="http://www.w3.org/2000/svg" xmlns:xlink="http://www.w3.org/1999/xlink" x="0px" y="0px"
	 width="90px" height="88.738px" viewBox="0 0 90 88.738" style="enable-background:new 0 0 90 88.738;" xml:space="preserve">
<g>
	<path d="M20.379,9.621c0,5.315-3.924,9.62-10.381,9.62C3.924,19.241,0,14.937,0,9.621C0,4.178,4.051,0,10.252,0
		C16.455,0,20.254,4.178,20.379,9.621z M0.506,88.738V26.837h19.242v61.901H0.506z"/>
	<path d="M31.262,46.584c0-7.721-0.252-14.176-0.504-19.747h16.707l0.889,8.608h0.379c2.531-4.053,8.734-10.002,19.115-10.002
		C80.506,25.443,90,33.926,90,52.153v36.585H70.758V54.433c0-7.976-2.785-13.417-9.748-13.417c-5.316,0-8.479,3.67-9.871,7.215
		c-0.508,1.265-0.635,3.038-0.635,4.811v35.697H31.262V46.584z"/>
</g>
<g>
</g>
<g>
</g>
<g>
</g>
<g>
</g>
<g>
</g>
<g>
</g>
<g>
</g>
<g>
</g>
<g>
</g>
<g>
</g>
<g>
</g>
<g>
</g>
<g>
</g>
<g>
</g>
<g>
</g>
</svg>
