<?xml version="1.0" encoding="iso-8859-1"?>
<!-- Generator: Adobe Illustrator 16.0.0, SVG Export Plug-In . SVG Version: 6.00 Build 0)  -->
<!DOCTYPE svg PUBLIC "-//W3C//DTD SVG 1.1//EN" "http://www.w3.org/Graphics/SVG/1.1/DTD/svg11.dtd">
<svg version="1.1" id="Capa_1" xmlns="http://www.w3.org/2000/svg" xmlns:xlink="http://www.w3.org/1999/xlink" x="0px" y="0px"
	 width="86px" height="70px" viewBox="0 0 86 70" style="enable-background:new 0 0 86 70;" xml:space="preserve">
<path d="M78.947,5.754c-8.359-7.672-21.911-7.672-30.271,0L43,10.963l-5.678-5.209c-8.358-7.672-21.91-7.672-30.27,0
	c-9.404,8.63-9.404,22.624,0,31.254L43,70l35.947-32.992C88.351,28.377,88.351,14.384,78.947,5.754z M73.623,31.878L43,60.446
	L12.379,31.878C9.29,29.043,8.095,25.316,8.095,21.38c0-3.934,0.689-7.162,3.778-9.996C14.602,8.879,18.266,7.5,22.188,7.5
	c3.925,0,7.588,2.379,10.317,4.884l10.497,9.133l10.493-9.133C56.224,9.879,59.888,7.5,63.812,7.5c3.924,0,7.588,1.379,10.316,3.885
	c3.089,2.833,3.776,6.062,3.778,9.996C77.907,25.316,76.712,29.043,73.623,31.878z"/>
<g>
</g>
<g>
</g>
<g>
</g>
<g>
</g>
<g>
</g>
<g>
</g>
<g>
</g>
<g>
</g>
<g>
</g>
<g>
</g>
<g>
</g>
<g>
</g>
<g>
</g>
<g>
</g>
<g>
</g>
</svg>
