<?xml version="1.0" encoding="iso-8859-1"?>
<!-- Generator: Adobe Illustrator 16.0.0, SVG Export Plug-In . SVG Version: 6.00 Build 0)  -->
<!DOCTYPE svg PUBLIC "-//W3C//DTD SVG 1.1//EN" "http://www.w3.org/Graphics/SVG/1.1/DTD/svg11.dtd">
<svg version="1.1" id="Capa_1" xmlns="http://www.w3.org/2000/svg" xmlns:xlink="http://www.w3.org/1999/xlink" x="0px" y="0px"
	 width="24px" height="84px" viewBox="0 0 24 84" style="enable-background:new 0 0 24 84;" xml:space="preserve">
<path d="M16.75,60.981V23.019C21.014,21.178,24,16.938,24,12c0-6.628-5.373-12-12-12C5.374,0,0,5.372,0,12
	c0,4.938,2.987,9.178,7.25,11.019v37.963C2.987,62.821,0,67.061,0,72c0,6.626,5.374,12,12,12c6.627,0,12-5.374,12-12
	C24,67.061,21.014,62.821,16.75,60.981z M5.078,12c0-3.823,3.101-6.923,6.922-6.923c3.824,0,6.923,3.1,6.923,6.923
	s-3.1,6.923-6.923,6.923C8.178,18.923,5.078,15.823,5.078,12z M12,78.923c-3.822,0-6.922-3.1-6.922-6.923S8.178,65.077,12,65.077
	c3.824,0,6.923,3.1,6.923,6.923S15.824,78.923,12,78.923z"/>
<g>
</g>
<g>
</g>
<g>
</g>
<g>
</g>
<g>
</g>
<g>
</g>
<g>
</g>
<g>
</g>
<g>
</g>
<g>
</g>
<g>
</g>
<g>
</g>
<g>
</g>
<g>
</g>
<g>
</g>
</svg>
