<?xml version="1.0" encoding="iso-8859-1"?>
<!-- Generator: Adobe Illustrator 16.0.0, SVG Export Plug-In . SVG Version: 6.00 Build 0)  -->
<!DOCTYPE svg PUBLIC "-//W3C//DTD SVG 1.1//EN" "http://www.w3.org/Graphics/SVG/1.1/DTD/svg11.dtd">
<svg version="1.1" id="Capa_1" xmlns="http://www.w3.org/2000/svg" xmlns:xlink="http://www.w3.org/1999/xlink" x="0px" y="0px"
	 width="82px" height="88px" viewBox="0 0 82 88" style="enable-background:new 0 0 82 88;" xml:space="preserve">
<path d="M51.822,83.297c-0.143,1.545,1.084,2.918,2.727,3.055l19.926,1.637c1.643,0.138,3.105-1.018,3.25-2.562l1.555-16.432
	l-25.9-2.132L51.822,83.297z M2.721,68.995l1.557,16.432c0.143,1.544,1.607,2.7,3.25,2.562l19.926-1.637
	c1.639-0.137,2.867-1.51,2.727-3.055l-1.557-16.434L2.721,68.995z M0.154,41.913L1.76,58.864l25.902-2.131L26.057,39.8
	C26.02,39.393,26,38.971,26,38.555c0-7.777,6.729-14.105,15-14.105s15,6.329,15,14.105c0,0.416-0.02,0.838-0.057,1.246
	l-1.605,16.932l25.902,2.131l1.605-16.951C81.947,40.793,82,39.669,82,38.555C82,17.294,63.607,0,41,0S0,17.294,0,38.555
	C0,39.669,0.053,40.793,0.154,41.913z"/>
<g>
</g>
<g>
</g>
<g>
</g>
<g>
</g>
<g>
</g>
<g>
</g>
<g>
</g>
<g>
</g>
<g>
</g>
<g>
</g>
<g>
</g>
<g>
</g>
<g>
</g>
<g>
</g>
<g>
</g>
</svg>
