<?xml version="1.0" encoding="iso-8859-1"?>
<!-- Generator: Adobe Illustrator 16.0.0, SVG Export Plug-In . SVG Version: 6.00 Build 0)  -->
<!DOCTYPE svg PUBLIC "-//W3C//DTD SVG 1.1//EN" "http://www.w3.org/Graphics/SVG/1.1/DTD/svg11.dtd">
<svg version="1.1" id="Capa_1" xmlns="http://www.w3.org/2000/svg" xmlns:xlink="http://www.w3.org/1999/xlink" x="0px" y="0px"
	 width="70px" height="88px" viewBox="0 0 70 88" style="enable-background:new 0 0 70 88;" xml:space="preserve">
<path d="M68.631,58.199C64.414,65.02,50.955,70.007,35,70.007c-15.953,0-29.414-4.987-33.629-11.808C0.477,56.756,0,57.528,0,58.245
	c0,0.715,0,10.01,0,10.01C0,77.948,15.67,88,35,88c19.332,0,35-10.052,35-19.745c0,0,0-9.295,0-10.01
	C70,57.528,69.523,56.756,68.631,58.199z M68.688,32.624c-4.148,6.03-17.66,10.45-33.688,10.45c-16.025,0-29.539-4.42-33.688-10.45
	C0.457,31.381,0,32.056,0,32.619c0,0.564,0,11.779,0,11.779c0,8.813,15.67,15.955,35,15.955c19.332,0,35-7.142,35-15.955
	c0,0,0-11.215,0-11.779C70,32.056,69.543,31.381,68.688,32.624z M35,0C15.67,0,0,5.893,0,13.162v6.298c0,7.71,15.67,13.96,35,13.96
	c19.332,0,35-6.25,35-13.96v-6.298C70,5.893,54.332,0,35,0z"/>
<g>
</g>
<g>
</g>
<g>
</g>
<g>
</g>
<g>
</g>
<g>
</g>
<g>
</g>
<g>
</g>
<g>
</g>
<g>
</g>
<g>
</g>
<g>
</g>
<g>
</g>
<g>
</g>
<g>
</g>
</svg>
