<?xml version="1.0" encoding="iso-8859-1"?>
<!-- Generator: Adobe Illustrator 16.0.0, SVG Export Plug-In . SVG Version: 6.00 Build 0)  -->
<!DOCTYPE svg PUBLIC "-//W3C//DTD SVG 1.1//EN" "http://www.w3.org/Graphics/SVG/1.1/DTD/svg11.dtd">
<svg version="1.1" id="Capa_1" xmlns="http://www.w3.org/2000/svg" xmlns:xlink="http://www.w3.org/1999/xlink" x="0px" y="0px"
	 width="70px" height="90px" viewBox="0 0 70 90" style="enable-background:new 0 0 70 90;" xml:space="preserve">
<g>
	<path d="M60,0H10C4.5,0,0,4.5,0,10v70c0,5.5,4.5,10,10,10h50c5.5,0,10-4.5,10-10V10C70,4.5,65.5,0,60,0z M48.98,47.603
		c-1.188,1.851-1.818,1.06-1.461,0c0.943-2.789,0.904-11.232-6.961-12.472v26.064c0,4.858-2.797,7.91-8.748,9.818
		c-5.781,1.854-12.25-0.071-13.762-4.225c-1.512-4.152,1.888-9.202,7.592-11.28c3.184-1.156,6.412-1.142,8.906-0.183V18.562h6.012
		C40.558,24.875,57.462,34.407,48.98,47.603z"/>
</g>
<g>
</g>
<g>
</g>
<g>
</g>
<g>
</g>
<g>
</g>
<g>
</g>
<g>
</g>
<g>
</g>
<g>
</g>
<g>
</g>
<g>
</g>
<g>
</g>
<g>
</g>
<g>
</g>
<g>
</g>
</svg>
