<?xml version="1.0" encoding="iso-8859-1"?>
<!-- Generator: Adobe Illustrator 16.0.0, SVG Export Plug-In . SVG Version: 6.00 Build 0)  -->
<!DOCTYPE svg PUBLIC "-//W3C//DTD SVG 1.1//EN" "http://www.w3.org/Graphics/SVG/1.1/DTD/svg11.dtd">
<svg version="1.1" id="Capa_1" xmlns="http://www.w3.org/2000/svg" xmlns:xlink="http://www.w3.org/1999/xlink" x="0px" y="0px"
	 width="80px" height="90px" viewBox="0 0 80 90" style="enable-background:new 0 0 80 90;" xml:space="preserve">
<path d="M58.241,31.814c-0.659-1.777,17.699-18.172,6.99-31.457c-2.507-3.109-11.006,14.875-23.077,23.018
	C35.495,27.867,20,37.429,20,42.711v34.202C20,83.272,44.568,90,63.246,90C70.083,90,80,47.124,80,40.312
	C80,33.476,58.9,33.592,58.241,31.814z M15,32.29c-3.288,0-15,2-15,15.608v24.24c0,13.609,11.712,15.109,15,15.109
	c3.287,0-5-2.863-5-11.297V44.086C10,35.244,18.287,32.29,15,32.29z"/>
<g>
</g>
<g>
</g>
<g>
</g>
<g>
</g>
<g>
</g>
<g>
</g>
<g>
</g>
<g>
</g>
<g>
</g>
<g>
</g>
<g>
</g>
<g>
</g>
<g>
</g>
<g>
</g>
<g>
</g>
</svg>
