<?xml version="1.0" encoding="iso-8859-1"?>
<!-- Generator: Adobe Illustrator 16.0.0, SVG Export Plug-In . SVG Version: 6.00 Build 0)  -->
<!DOCTYPE svg PUBLIC "-//W3C//DTD SVG 1.1//EN" "http://www.w3.org/Graphics/SVG/1.1/DTD/svg11.dtd">
<svg version="1.1" id="Capa_1" xmlns="http://www.w3.org/2000/svg" xmlns:xlink="http://www.w3.org/1999/xlink" x="0px" y="0px"
	 width="96px" height="90.981px" viewBox="0 0 96 90.981" style="enable-background:new 0 0 96 90.981;" xml:space="preserve">
<path d="M28.545,0L0,17.777l19.557,16.396L48,15.704L28.545,0z M65.26,75.458c-0.508,0-1.014-0.172-1.426-0.513L48,61.805
	L32.166,74.945c-0.412,0.341-0.92,0.513-1.426,0.513c-0.426,0-0.85-0.118-1.223-0.362l-11.729-7.667v4.522L48,90.981l30.209-19.03
	v-4.522L66.48,75.096C66.109,75.34,65.686,75.458,65.26,75.458z M96,17.777L67.453,0L48,15.704l28.441,18.469L96,17.777z M48,51.949
	l17.639,14.64l28.205-18.443L76.441,34.173L48,51.949z M30.361,66.589L48,51.949L19.557,34.173L2.154,48.146L30.361,66.589z"/>
<g>
</g>
<g>
</g>
<g>
</g>
<g>
</g>
<g>
</g>
<g>
</g>
<g>
</g>
<g>
</g>
<g>
</g>
<g>
</g>
<g>
</g>
<g>
</g>
<g>
</g>
<g>
</g>
<g>
</g>
</svg>
