<?xml version="1.0" encoding="iso-8859-1"?>
<!-- Generator: Adobe Illustrator 16.0.0, SVG Export Plug-In . SVG Version: 6.00 Build 0)  -->
<!DOCTYPE svg PUBLIC "-//W3C//DTD SVG 1.1//EN" "http://www.w3.org/Graphics/SVG/1.1/DTD/svg11.dtd">
<svg version="1.1" id="Capa_1" xmlns="http://www.w3.org/2000/svg" xmlns:xlink="http://www.w3.org/1999/xlink" x="0px" y="0px"
	 width="70px" height="85px" viewBox="0 0 70 85" style="enable-background:new 0 0 70 85;" xml:space="preserve">
<g>
	<path d="M64,30h-9v-7C55,8.514,48.327,0,35,0C21.673,0,15,8.514,15,23v7H5c-2.762,0-5,3.238-5,6v39c0,2.75,2.142,5.691,4.759,6.535
		l5.982,1.93C13.358,84.31,17.75,85,20.5,85h29c2.75,0,7.142-0.69,9.759-1.535l5.982-1.93C67.858,80.691,70,77.75,70,75V36
		C70,33.238,66.762,30,64,30z M25,21c0-7.225,3.986-11,10-11s10,3.775,10,11v9H25V21z"/>
</g>
<g>
</g>
<g>
</g>
<g>
</g>
<g>
</g>
<g>
</g>
<g>
</g>
<g>
</g>
<g>
</g>
<g>
</g>
<g>
</g>
<g>
</g>
<g>
</g>
<g>
</g>
<g>
</g>
<g>
</g>
</svg>
