<?xml version="1.0" encoding="iso-8859-1"?>
<!-- Generator: Adobe Illustrator 16.0.0, SVG Export Plug-In . SVG Version: 6.00 Build 0)  -->
<!DOCTYPE svg PUBLIC "-//W3C//DTD SVG 1.1//EN" "http://www.w3.org/Graphics/SVG/1.1/DTD/svg11.dtd">
<svg version="1.1" id="Capa_1" xmlns="http://www.w3.org/2000/svg" xmlns:xlink="http://www.w3.org/1999/xlink" x="0px" y="0px"
	 width="92px" height="74px" viewBox="0 0 92 74" style="enable-background:new 0 0 92 74;" xml:space="preserve">
<path d="M89.469,0.173C87.751,0.779,2.864,30.692,1.193,31.281c-1.419,0.5-1.735,1.725-0.05,2.399
	c2.007,0.804,18.979,7.604,18.979,7.604h-0.002l11.253,4.509c0,0,54.187-39.792,54.924-40.333c0.736-0.542,1.589,0.475,1.052,1.056
	c-0.537,0.584-39.356,42.567-39.356,42.567c-0.002,0.001-0.002,0.002-0.002,0.003l-2.264,2.517l2.994,1.612v0.001
	c0,0,23.251,12.515,24.908,13.407c1.451,0.781,3.34,0.132,3.759-1.674C77.882,62.819,91.613,3.643,91.92,2.327
	C92.317,0.612,91.187-0.432,89.469,0.173z M31.27,72.809c0,1.235,0.693,1.578,1.655,0.704c1.254-1.137,14.245-12.796,14.245-12.796
	l-15.9-8.227V72.809z"/>
<g>
</g>
<g>
</g>
<g>
</g>
<g>
</g>
<g>
</g>
<g>
</g>
<g>
</g>
<g>
</g>
<g>
</g>
<g>
</g>
<g>
</g>
<g>
</g>
<g>
</g>
<g>
</g>
<g>
</g>
</svg>
