<?xml version="1.0" encoding="iso-8859-1"?>
<!-- Generator: Adobe Illustrator 16.0.0, SVG Export Plug-In . SVG Version: 6.00 Build 0)  -->
<!DOCTYPE svg PUBLIC "-//W3C//DTD SVG 1.1//EN" "http://www.w3.org/Graphics/SVG/1.1/DTD/svg11.dtd">
<svg version="1.1" id="Capa_1" xmlns="http://www.w3.org/2000/svg" xmlns:xlink="http://www.w3.org/1999/xlink" x="0px" y="0px"
	 width="64px" height="84px" viewBox="0 0 64 84" style="enable-background:new 0 0 64 84;" xml:space="preserve">
<path d="M24,12c0-6.628-5.374-12-12-12C5.373,0,0,5.372,0,12c0,4.938,2.986,9.178,7.25,11.019v37.963C2.986,62.821,0,67.061,0,72
	c0,6.626,5.373,12,12,12c6.626,0,12-5.374,12-12c0-4.939-2.986-9.179-7.25-11.019V23.019C21.014,21.178,24,16.938,24,12z M18.923,72
	c0,3.823-3.1,6.923-6.923,6.923c-3.822,0-6.923-3.1-6.923-6.923S8.178,65.077,12,65.077C15.823,65.077,18.923,68.177,18.923,72z
	 M12,18.923c-3.822,0-6.923-3.1-6.923-6.923S8.178,5.077,12,5.077c3.823,0,6.923,3.1,6.923,6.923S15.823,18.923,12,18.923z
	 M56.75,60.981V23.019C61.014,21.178,64,16.938,64,12c0-6.628-5.374-12-12-12c-6.627,0-12,5.372-12,12
	c0,4.938,2.986,9.178,7.25,11.019v37.963C42.987,62.821,40,67.061,40,72c0,6.626,5.373,12,12,12c6.626,0,12-5.374,12-12
	C64,67.061,61.014,62.821,56.75,60.981z M45.077,12c0-3.823,3.102-6.923,6.924-6.923s6.922,3.1,6.922,6.923s-3.1,6.923-6.922,6.923
	S45.077,15.823,45.077,12z M52,78.923c-3.822,0-6.924-3.1-6.924-6.923s3.102-6.923,6.924-6.923s6.922,3.1,6.922,6.923
	S55.823,78.923,52,78.923z"/>
<g>
</g>
<g>
</g>
<g>
</g>
<g>
</g>
<g>
</g>
<g>
</g>
<g>
</g>
<g>
</g>
<g>
</g>
<g>
</g>
<g>
</g>
<g>
</g>
<g>
</g>
<g>
</g>
<g>
</g>
</svg>
