<?xml version="1.0" encoding="iso-8859-1"?>
<!-- Generator: Adobe Illustrator 16.0.0, SVG Export Plug-In . SVG Version: 6.00 Build 0)  -->
<!DOCTYPE svg PUBLIC "-//W3C//DTD SVG 1.1//EN" "http://www.w3.org/Graphics/SVG/1.1/DTD/svg11.dtd">
<svg version="1.1" id="Capa_1" xmlns="http://www.w3.org/2000/svg" xmlns:xlink="http://www.w3.org/1999/xlink" x="0px" y="0px"
	 width="98px" height="70px" viewBox="0 0 98 70" style="enable-background:new 0 0 98 70;" xml:space="preserve">
<g>
	<path d="M98,10V4c0-2.209-1.792-4-4-4H4C1.791,0,0,1.791,0,4v6h10v10H0v10h10v10H0v10h10v10H0v6c0,2.209,1.791,4,4,4h90
		c2.208,0,4-1.791,4-4v-6H88V50h10V40H88V30h10V20H88V10H98z M38,50V20l25,15L38,50z"/>
</g>
<g>
</g>
<g>
</g>
<g>
</g>
<g>
</g>
<g>
</g>
<g>
</g>
<g>
</g>
<g>
</g>
<g>
</g>
<g>
</g>
<g>
</g>
<g>
</g>
<g>
</g>
<g>
</g>
<g>
</g>
</svg>
