<?xml version="1.0" encoding="iso-8859-1"?>
<!-- Generator: Adobe Illustrator 16.0.0, SVG Export Plug-In . SVG Version: 6.00 Build 0)  -->
<!DOCTYPE svg PUBLIC "-//W3C//DTD SVG 1.1//EN" "http://www.w3.org/Graphics/SVG/1.1/DTD/svg11.dtd">
<svg version="1.1" id="Capa_1" xmlns="http://www.w3.org/2000/svg" xmlns:xlink="http://www.w3.org/1999/xlink" x="0px" y="0px"
	 width="92px" height="92px" viewBox="0 0 92 92" style="enable-background:new 0 0 92 92;" xml:space="preserve">
<path d="M25.037,5.109C9.592,13.055,0,28.717,0,46.096c0,3.172,0.398,6.385,1.102,9.59L40.85,19.496
	C36.609,15.639,25.471,5.506,25.037,5.109z M64.963,4.131C58.961,1.4,52.584,0,45.996,0c-4.672,0-9.277,0.775-13.748,2.207
	l32.715,29.756V4.131z M71.963,8.186v53.088h17.424C91.104,56.361,92,51.258,92,46.096C92,30.936,84.381,16.738,71.963,8.186z
	 M3.312,63.141c3.371,8.469,9.289,15.754,16.84,20.918V47.807L9.93,57.115C6.439,60.293,3.527,62.945,3.312,63.141z M27.152,88.121
	c4.674,2.105,9.564,3.41,14.6,3.879h8.447c15.092-1.41,28.633-10.346,35.994-23.727H27.152V88.121z"/>
<g>
</g>
<g>
</g>
<g>
</g>
<g>
</g>
<g>
</g>
<g>
</g>
<g>
</g>
<g>
</g>
<g>
</g>
<g>
</g>
<g>
</g>
<g>
</g>
<g>
</g>
<g>
</g>
<g>
</g>
</svg>
