<?xml version="1.0" encoding="iso-8859-1"?>
<!-- Generator: Adobe Illustrator 16.0.0, SVG Export Plug-In . SVG Version: 6.00 Build 0)  -->
<!DOCTYPE svg PUBLIC "-//W3C//DTD SVG 1.1//EN" "http://www.w3.org/Graphics/SVG/1.1/DTD/svg11.dtd">
<svg version="1.1" id="Capa_1" xmlns="http://www.w3.org/2000/svg" xmlns:xlink="http://www.w3.org/1999/xlink" x="0px" y="0px"
	 width="96px" height="96px" viewBox="0 0 96 96" style="enable-background:new 0 0 96 96;" xml:space="preserve">
<path d="M48,0C21.488,0,0,21.49,0,48c0,26.511,21.488,48,48,48c26.51,0,48-21.489,48-48C96,21.49,74.51,0,48,0z M51.283,59.383
	c-3.078-0.238-4.369-1.762-6.779-3.227c-1.326,6.955-2.947,13.624-7.748,17.107c-1.482-10.514,2.176-18.409,3.873-26.792
	c-2.895-4.874,0.35-14.685,6.457-12.267c7.514,2.973-6.508,18.121,2.904,20.014c9.83,1.975,13.842-17.054,7.748-23.242
	c-8.807-8.934-25.633-0.203-23.564,12.59c0.504,3.128,3.734,4.076,1.291,8.393c-5.637-1.25-7.318-5.693-7.102-11.621
	c0.348-9.699,8.717-16.491,17.107-17.431c10.613-1.188,20.576,3.896,21.951,13.88C68.971,48.057,62.631,60.262,51.283,59.383z"/>
<g>
</g>
<g>
</g>
<g>
</g>
<g>
</g>
<g>
</g>
<g>
</g>
<g>
</g>
<g>
</g>
<g>
</g>
<g>
</g>
<g>
</g>
<g>
</g>
<g>
</g>
<g>
</g>
<g>
</g>
</svg>
