<?xml version="1.0" encoding="iso-8859-1"?>
<!-- Generator: Adobe Illustrator 16.0.0, SVG Export Plug-In . SVG Version: 6.00 Build 0)  -->
<!DOCTYPE svg PUBLIC "-//W3C//DTD SVG 1.1//EN" "http://www.w3.org/Graphics/SVG/1.1/DTD/svg11.dtd">
<svg version="1.1" id="Capa_1" xmlns="http://www.w3.org/2000/svg" xmlns:xlink="http://www.w3.org/1999/xlink" x="0px" y="0px"
	 width="86px" height="86px" viewBox="0 0 86 86" style="enable-background:new 0 0 86 86;" xml:space="preserve">
<g>
	<path d="M42.998,0C19.252,0,0,19.252,0,43c0,23.749,19.252,43,42.998,43C66.748,86,86,66.749,86,43C86,19.252,66.748,0,42.998,0z
		 M46.5,77.825V58.5h-7.002v19.325C22.965,76.184,9.818,63.035,8.176,46.5H27.5v-7.002H8.176
		C9.818,22.964,22.965,9.816,39.498,8.175V27.5H46.5V8.175c16.537,1.642,29.684,14.79,31.326,31.323H58.5V46.5h19.326
		C76.184,63.035,63.037,76.182,46.5,77.825z"/>
</g>
<g>
</g>
<g>
</g>
<g>
</g>
<g>
</g>
<g>
</g>
<g>
</g>
<g>
</g>
<g>
</g>
<g>
</g>
<g>
</g>
<g>
</g>
<g>
</g>
<g>
</g>
<g>
</g>
<g>
</g>
</svg>
