<?xml version="1.0" encoding="iso-8859-1"?>
<!-- Generator: Adobe Illustrator 16.0.0, SVG Export Plug-In . SVG Version: 6.00 Build 0)  -->
<!DOCTYPE svg PUBLIC "-//W3C//DTD SVG 1.1//EN" "http://www.w3.org/Graphics/SVG/1.1/DTD/svg11.dtd">
<svg version="1.1" id="Capa_1" xmlns="http://www.w3.org/2000/svg" xmlns:xlink="http://www.w3.org/1999/xlink" x="0px" y="0px"
	 width="86px" height="84px" viewBox="0 0 86 84" style="enable-background:new 0 0 86 84;" xml:space="preserve">
<g>
	<path d="M83.609,10.335c-1.479-1.278-9.531-7.373-11.034-8.671C71.072,0.365,68.719,0,67.064,0H18.937
		c-1.655,0-4.008,0.365-5.511,1.664c-1.503,1.298-9.555,7.394-11.034,8.671c-1.48,1.278-2.712,3.206-2.317,5.956
		c0.396,2.75,9.683,64.863,9.683,64.863C10.28,82.719,12.061,84,13.716,84h58.568c1.655,0,3.437-1.281,3.958-2.846
		c0,0,9.287-62.113,9.682-64.863S85.088,11.613,83.609,10.335z M43,53.843c-16.238,0-19.717-22.985-20.436-27.722h9.182
		C33.131,33.029,36.275,44.843,43,44.843s9.869-11.813,11.254-18.722h9.182C62.717,30.858,59.239,53.843,43,53.843z M7.816,17
		L18.844,5.5h48.312L78.185,17H7.816z"/>
</g>
<g>
</g>
<g>
</g>
<g>
</g>
<g>
</g>
<g>
</g>
<g>
</g>
<g>
</g>
<g>
</g>
<g>
</g>
<g>
</g>
<g>
</g>
<g>
</g>
<g>
</g>
<g>
</g>
<g>
</g>
</svg>
