<?xml version="1.0" encoding="iso-8859-1"?>
<!-- Generator: Adobe Illustrator 16.0.0, SVG Export Plug-In . SVG Version: 6.00 Build 0)  -->
<!DOCTYPE svg PUBLIC "-//W3C//DTD SVG 1.1//EN" "http://www.w3.org/Graphics/SVG/1.1/DTD/svg11.dtd">
<svg version="1.1" id="Capa_1" xmlns="http://www.w3.org/2000/svg" xmlns:xlink="http://www.w3.org/1999/xlink" x="0px" y="0px"
	 width="98px" height="85px" viewBox="0 0 98 85" style="enable-background:new 0 0 98 85;" xml:space="preserve">
<g>
	<path d="M6.5,25h85c2.854,0,2.385-3.04,0.965-3.535C91.045,20.969,75.25,15,72.5,15H68V0H30v15h-4.5
		c-2.75,0-18.545,5.969-19.965,6.465C4.115,21.96,3.646,25,6.5,25z M92.5,30.5h-87c-2.75,0-5.5,3.25-5.5,6V54c0,2.75,2.75,6,5.5,6
		h9.912L11,85h76l-4.412-25H92.5c2.75,0,5.5-3.25,5.5-6V36.5C98,33.75,95.25,30.5,92.5,30.5z M21,75l7-32.5h42L77,75H21z"/>
</g>
<g>
</g>
<g>
</g>
<g>
</g>
<g>
</g>
<g>
</g>
<g>
</g>
<g>
</g>
<g>
</g>
<g>
</g>
<g>
</g>
<g>
</g>
<g>
</g>
<g>
</g>
<g>
</g>
<g>
</g>
</svg>
