<?xml version="1.0" encoding="iso-8859-1"?>
<!-- Generator: Adobe Illustrator 16.0.0, SVG Export Plug-In . SVG Version: 6.00 Build 0)  -->
<!DOCTYPE svg PUBLIC "-//W3C//DTD SVG 1.1//EN" "http://www.w3.org/Graphics/SVG/1.1/DTD/svg11.dtd">
<svg version="1.1" id="Capa_1" xmlns="http://www.w3.org/2000/svg" xmlns:xlink="http://www.w3.org/1999/xlink" x="0px" y="0px"
	 width="64px" height="100px" viewBox="0 0 64 100" style="enable-background:new 0 0 64 100;" xml:space="preserve">
<g>
	<g>
		<path d="M62,36.215h-3c-1.1,0-2,0.9-2,2V52c0,6.686-5.266,18-25,18S7,58.686,7,52V38.215c0-1.1-0.9-2-2-2H2c-1.1,0-2,0.9-2,2V52
			c0,11.184,8.215,23.152,27,24.801V90H14c-1.1,0-2,0.898-2,2v6c0,1.1,0.9,2,2,2h36c1.1,0,2-0.9,2-2v-6c0-1.102-0.9-2-2-2H37V76.801
			C55.785,75.152,64,63.184,64,52V38.215C64,37.115,63.1,36.215,62,36.215z"/>
		<path d="M32,60c11.732,0,15-4.818,15-8V36.215H17V52C17,55.182,20.266,60,32,60z"/>
		<path d="M47,8c0-3.184-3.268-8-15-8C20.266,0,17,4.816,17,8v21.215h30V8z"/>
	</g>
</g>
<g>
</g>
<g>
</g>
<g>
</g>
<g>
</g>
<g>
</g>
<g>
</g>
<g>
</g>
<g>
</g>
<g>
</g>
<g>
</g>
<g>
</g>
<g>
</g>
<g>
</g>
<g>
</g>
<g>
</g>
</svg>
