<?xml version="1.0" encoding="iso-8859-1"?>
<!-- Generator: Adobe Illustrator 16.0.0, SVG Export Plug-In . SVG Version: 6.00 Build 0)  -->
<!DOCTYPE svg PUBLIC "-//W3C//DTD SVG 1.1//EN" "http://www.w3.org/Graphics/SVG/1.1/DTD/svg11.dtd">
<svg version="1.1" id="Capa_1" xmlns="http://www.w3.org/2000/svg" xmlns:xlink="http://www.w3.org/1999/xlink" x="0px" y="0px"
	 width="92px" height="78px" viewBox="0 0 92 78" style="enable-background:new 0 0 92 78;" xml:space="preserve">
<path d="M76.684,33.881c11.752-3.477,18.643-15.93,13.695-16.18c-12.703-0.646-23.57-6.801-30.889-11.4
	c-0.773-0.511-1.564-0.996-2.375-1.449v28.625c0,9.463-5.723,17.008-12.219,20.144c-9.424,4.549-19.928,1.692-23.457-6.382
	s1.25-18.309,10.676-22.858c5.215-2.516,10.752-2.76,15.262-1.114V1.061C44.527,0.379,41.562,0,38.506,0C17.24,0,0,17.46,0,39
	s17.24,39,38.506,39c21.268,0,38.506-17.46,38.506-39C77.012,37.266,76.898,35.555,76.684,33.881z"/>
<g>
</g>
<g>
</g>
<g>
</g>
<g>
</g>
<g>
</g>
<g>
</g>
<g>
</g>
<g>
</g>
<g>
</g>
<g>
</g>
<g>
</g>
<g>
</g>
<g>
</g>
<g>
</g>
<g>
</g>
</svg>
