<?xml version="1.0" encoding="iso-8859-1"?>
<!-- Generator: Adobe Illustrator 16.0.0, SVG Export Plug-In . SVG Version: 6.00 Build 0)  -->
<!DOCTYPE svg PUBLIC "-//W3C//DTD SVG 1.1//EN" "http://www.w3.org/Graphics/SVG/1.1/DTD/svg11.dtd">
<svg version="1.1" id="Capa_1" xmlns="http://www.w3.org/2000/svg" xmlns:xlink="http://www.w3.org/1999/xlink" x="0px" y="0px"
	 width="96px" height="96px" viewBox="0 0 96 96" style="enable-background:new 0 0 96 96;" xml:space="preserve">
<path d="M48,0C21.488,0,0,21.49,0,48c0,26.511,21.488,48,48,48c26.51,0,48-21.489,48-48C96,21.49,74.51,0,48,0z M65.018,45.415
	c0.109,0.846,0.168,1.709,0.168,2.585c0,10.884-8.711,19.705-19.455,19.705c-10.746,0-19.457-8.821-19.457-19.705
	c0-10.883,8.711-19.705,19.457-19.705c1.543,0,3.041,0.191,4.482,0.536v11.22c-2.279-0.832-5.078-0.709-7.711,0.562
	c-4.764,2.299-7.18,7.471-5.396,11.55c1.785,4.079,7.092,5.522,11.854,3.225c3.281-1.585,6.174-5.397,6.174-10.179V30.746
	c0.41,0.229,0.809,0.475,1.199,0.732c3.699,2.324,9.189,5.434,15.607,5.76C74.439,37.365,70.955,43.658,65.018,45.415z"/>
<g>
</g>
<g>
</g>
<g>
</g>
<g>
</g>
<g>
</g>
<g>
</g>
<g>
</g>
<g>
</g>
<g>
</g>
<g>
</g>
<g>
</g>
<g>
</g>
<g>
</g>
<g>
</g>
<g>
</g>
</svg>
