<?xml version="1.0" encoding="iso-8859-1"?>
<!-- Generator: Adobe Illustrator 16.0.0, SVG Export Plug-In . SVG Version: 6.00 Build 0)  -->
<!DOCTYPE svg PUBLIC "-//W3C//DTD SVG 1.1//EN" "http://www.w3.org/Graphics/SVG/1.1/DTD/svg11.dtd">
<svg version="1.1" id="Capa_1" xmlns="http://www.w3.org/2000/svg" xmlns:xlink="http://www.w3.org/1999/xlink" x="0px" y="0px"
	 width="92px" height="92px" viewBox="0 0 92 92" style="enable-background:new 0 0 92 92;" xml:space="preserve">
<g>
	<path d="M55.617,0c-19.051,0-34.73,14.717-36.258,33.371C8.043,37.785,0,48.799,0,61.654C0,78.387,13.623,92,30.365,92
		c12.887,0,23.924-8.066,28.324-19.41C77.32,71.025,92,55.375,92,36.359C92,16.311,75.682,0,55.617,0z M30.365,81.885
		c-11.16,0-20.242-9.074-20.242-20.23c0-7.41,4.01-13.9,9.975-17.424c3.051,13.768,13.936,24.627,27.727,27.646
		C44.303,77.859,37.797,81.885,30.365,81.885z M30.688,41.432c10.889,0.17,19.719,8.977,19.91,19.855
		C40.609,59.281,32.717,51.408,30.688,41.432z M60.727,61.271C60.521,44.82,47.15,31.482,30.682,31.314
		c2.35-11.611,12.639-20.377,24.936-20.377c14.029,0,25.443,11.402,25.443,25.422C81.061,48.633,72.316,58.902,60.727,61.271z
		 M10.4,21.574c5.721,0,10.373-4.648,10.373-10.365c0-5.713-4.652-10.363-10.373-10.363c-5.719,0-10.369,4.65-10.369,10.363
		C0.031,16.926,4.682,21.574,10.4,21.574z M10.4,5.492c3.156,0,5.723,2.564,5.723,5.717s-2.566,5.719-5.723,5.719
		c-3.152,0-5.719-2.566-5.719-5.719S7.248,5.492,10.4,5.492z"/>
</g>
<g>
</g>
<g>
</g>
<g>
</g>
<g>
</g>
<g>
</g>
<g>
</g>
<g>
</g>
<g>
</g>
<g>
</g>
<g>
</g>
<g>
</g>
<g>
</g>
<g>
</g>
<g>
</g>
<g>
</g>
</svg>
