<?xml version="1.0" encoding="iso-8859-1"?>
<!-- Generator: Adobe Illustrator 16.0.0, SVG Export Plug-In . SVG Version: 6.00 Build 0)  -->
<!DOCTYPE svg PUBLIC "-//W3C//DTD SVG 1.1//EN" "http://www.w3.org/Graphics/SVG/1.1/DTD/svg11.dtd">
<svg version="1.1" id="Capa_1" xmlns="http://www.w3.org/2000/svg" xmlns:xlink="http://www.w3.org/1999/xlink" x="0px" y="0px"
	 width="90px" height="75px" viewBox="0 0 90 75" style="enable-background:new 0 0 90 75;" xml:space="preserve">
<g>
	<path d="M88.419,42.003l-15.74-37.46C71.431,2.044,68.13,0,65.343,0H24.658c-2.789,0-6.09,2.044-7.338,4.543L1.582,42.003
		c-1.248,2.5-1.893,6.801-1.434,9.558l3.4,18.427C4.007,72.745,6.664,75,9.451,75h71.098c2.787,0,5.443-2.255,5.902-5.012
		l3.402-18.427C90.31,48.805,89.666,44.503,88.419,42.003z M81.605,55.129l-1.295,7.514c-0.389,2.884-2.984,5.243-5.773,5.243
		H15.462c-2.787,0-5.385-2.359-5.773-5.243l-1.295-7.514c-0.387-2.883,1.576-5.243,4.365-5.243h64.48
		C80.029,49.887,81.992,52.246,81.605,55.129z"/>
</g>
<g>
</g>
<g>
</g>
<g>
</g>
<g>
</g>
<g>
</g>
<g>
</g>
<g>
</g>
<g>
</g>
<g>
</g>
<g>
</g>
<g>
</g>
<g>
</g>
<g>
</g>
<g>
</g>
<g>
</g>
</svg>
