<?xml version="1.0" encoding="iso-8859-1"?>
<!-- Generator: Adobe Illustrator 16.0.0, SVG Export Plug-In . SVG Version: 6.00 Build 0)  -->
<!DOCTYPE svg PUBLIC "-//W3C//DTD SVG 1.1//EN" "http://www.w3.org/Graphics/SVG/1.1/DTD/svg11.dtd">
<svg version="1.1" id="Capa_1" xmlns="http://www.w3.org/2000/svg" xmlns:xlink="http://www.w3.org/1999/xlink" x="0px" y="0px"
	 width="90px" height="74px" viewBox="0 0 90 74" style="enable-background:new 0 0 90 74;" xml:space="preserve">
<path d="M8.219,18.79c8.736-7.502,15.637-13.433,34.359-2.854c8.994,5.081,16.249,6.999,22.289,6.998
	c10.575,0,17.426-5.883,23.352-10.975c2.113-1.814,2.385-5.035,0.607-7.194s-4.932-2.438-7.045-0.621
	c-8.735,7.505-15.635,13.434-34.363,2.853C22.679-6.978,11.092,2.977,1.781,10.974c-2.112,1.815-2.385,5.036-0.607,7.195
	C2.951,20.327,6.105,20.606,8.219,18.79z M81.781,29.678c-8.735,7.503-15.635,13.433-34.363,2.853
	c-24.739-13.976-36.326-4.021-45.637,3.977c-2.112,1.816-2.385,5.037-0.607,7.193c1.777,2.159,4.932,2.438,7.045,0.622
	c8.736-7.503,15.637-13.433,34.359-2.855c8.994,5.081,16.249,7,22.289,7c10.575,0,17.426-5.884,23.352-10.975
	c2.113-1.816,2.385-5.037,0.607-7.194C87.049,28.138,83.895,27.861,81.781,29.678z M81.781,55.209
	c-8.735,7.504-15.635,13.433-34.363,2.854C22.679,44.087,11.092,54.042,1.781,62.04c-2.112,1.815-2.385,5.037-0.607,7.196
	c1.777,2.156,4.932,2.436,7.045,0.62C16.955,62.351,23.855,56.424,42.578,67C51.572,72.083,58.827,74,64.867,74
	c10.575,0,17.426-5.884,23.352-10.974c2.113-1.815,2.385-5.038,0.607-7.196S83.895,53.395,81.781,55.209z"/>
<g>
</g>
<g>
</g>
<g>
</g>
<g>
</g>
<g>
</g>
<g>
</g>
<g>
</g>
<g>
</g>
<g>
</g>
<g>
</g>
<g>
</g>
<g>
</g>
<g>
</g>
<g>
</g>
<g>
</g>
</svg>
