<?xml version="1.0" encoding="iso-8859-1"?>
<!-- Generator: Adobe Illustrator 16.0.0, SVG Export Plug-In . SVG Version: 6.00 Build 0)  -->
<!DOCTYPE svg PUBLIC "-//W3C//DTD SVG 1.1//EN" "http://www.w3.org/Graphics/SVG/1.1/DTD/svg11.dtd">
<svg version="1.1" id="Capa_1" xmlns="http://www.w3.org/2000/svg" xmlns:xlink="http://www.w3.org/1999/xlink" x="0px" y="0px"
	 width="70px" height="50px" viewBox="0 0 70 50" style="enable-background:new 0 0 70 50;" xml:space="preserve">
<path d="M10,40H5c-2.762,0-5,2.238-5,5s2.238,5,5,5h5c2.762,0,5-2.238,5-5S12.762,40,10,40z M10,20H5c-2.762,0-5,2.238-5,5
	s2.238,5,5,5h5c2.762,0,5-2.238,5-5S12.762,20,10,20z M10,0H5C2.238,0,0,2.238,0,5s2.238,5,5,5h5c2.762,0,5-2.238,5-5S12.762,0,10,0
	z M30,10h35c2.762,0,5-2.238,5-5s-2.238-5-5-5H30c-2.762,0-5,2.238-5,5S27.238,10,30,10z M65,20H30c-2.762,0-5,2.238-5,5
	s2.238,5,5,5h35c2.762,0,5-2.238,5-5S67.762,20,65,20z M65,40H30c-2.762,0-5,2.238-5,5s2.238,5,5,5h35c2.762,0,5-2.238,5-5
	S67.762,40,65,40z"/>
<g>
</g>
<g>
</g>
<g>
</g>
<g>
</g>
<g>
</g>
<g>
</g>
<g>
</g>
<g>
</g>
<g>
</g>
<g>
</g>
<g>
</g>
<g>
</g>
<g>
</g>
<g>
</g>
<g>
</g>
</svg>
