<?xml version="1.0" encoding="iso-8859-1"?>
<!-- Generator: Adobe Illustrator 16.0.0, SVG Export Plug-In . SVG Version: 6.00 Build 0)  -->
<!DOCTYPE svg PUBLIC "-//W3C//DTD SVG 1.1//EN" "http://www.w3.org/Graphics/SVG/1.1/DTD/svg11.dtd">
<svg version="1.1" id="Capa_1" xmlns="http://www.w3.org/2000/svg" xmlns:xlink="http://www.w3.org/1999/xlink" x="0px" y="0px"
	 width="98px" height="80px" viewBox="0 0 98 80" style="enable-background:new 0 0 98 80;" xml:space="preserve">
<g>
	<path d="M49.001,60c-5.466,0-9.899,4.478-9.899,10s4.434,10,9.899,10c5.468,0,9.899-4.478,9.899-10S54.469,60,49.001,60z
		 M28.001,48.787l7,7.07c7.731-7.811,20.269-7.81,28.001,0l6.999-7.07C58.403,37.071,39.599,37.071,28.001,48.787z M14.001,34.645
		L21,41.716c15.464-15.621,40.536-15.621,56,0l7.001-7.071C64.672,15.119,33.33,15.119,14.001,34.645z M0,20.502l6.999,7.071
		c23.196-23.431,60.806-23.431,84.002,0L98,20.503C70.938-6.834,27.063-6.834,0,20.502z"/>
</g>
<g>
</g>
<g>
</g>
<g>
</g>
<g>
</g>
<g>
</g>
<g>
</g>
<g>
</g>
<g>
</g>
<g>
</g>
<g>
</g>
<g>
</g>
<g>
</g>
<g>
</g>
<g>
</g>
<g>
</g>
</svg>
