<?xml version="1.0" encoding="iso-8859-1"?>
<!-- Generator: Adobe Illustrator 16.0.0, SVG Export Plug-In . SVG Version: 6.00 Build 0)  -->
<!DOCTYPE svg PUBLIC "-//W3C//DTD SVG 1.1//EN" "http://www.w3.org/Graphics/SVG/1.1/DTD/svg11.dtd">
<svg version="1.1" id="Capa_1" xmlns="http://www.w3.org/2000/svg" xmlns:xlink="http://www.w3.org/1999/xlink" x="0px" y="0px"
	 width="99.5px" height="86px" viewBox="0 0 99.5 86" style="enable-background:new 0 0 99.5 86;" xml:space="preserve">
<path d="M73.189,43.341c-1.373-0.417-2.314-0.705-1.596-2.539c1.555-3.985,1.718-7.422,0.031-9.874
	c-3.164-4.6-11.818-4.353-21.735-0.123c0-0.005-3.116,1.387-2.32-1.129c1.526-4.994,1.294-9.174-1.078-11.589
	c-5.38-5.481-19.691,0.208-31.967,12.696C5.334,40.139,0,50.056,0,58.63C0,75.029,20.66,86,40.874,86C67.371,86,85,69.33,85,56.889
	C85,49.37,78.779,45.104,73.189,43.341z M40.929,78.647c-16.13,1.598-30.051-5.729-31.1-16.38
	c-1.047-10.646,11.182-20.578,27.31-22.181c16.131-1.606,30.055,5.727,31.1,16.373C69.283,67.11,57.062,77.043,40.929,78.647z
	 M99.5,29.987C99.492,13.425,86.065,0,69.5,0C67.566,0,66,1.567,66,3.5C66,5.434,67.566,7,69.5,7c12.703,0,23,10.298,23,23
	c0,1.934,1.568,3.5,3.5,3.5c1.934,0,3.5-1.566,3.5-3.5C99.5,30,99.5,29.992,99.5,29.987z M85.593,29.473
	c-1.599-7.809-7.755-13.964-15.565-15.564c-1.891-0.389-3.742,0.83-4.13,2.723c-0.39,1.893,0.829,3.742,2.72,4.133
	c5.078,1.04,9.08,5.039,10.119,10.117c0.391,1.893,2.24,3.111,4.133,2.723C84.762,33.214,85.98,31.365,85.593,29.473z
	 M32.656,50.514c-6.498,1.306-10.882,6.755-9.794,12.169c1.087,5.415,7.237,8.745,13.735,7.438
	c6.496-1.306,10.882-6.753,9.793-12.169C45.304,52.539,39.152,49.208,32.656,50.514z"/>
<g>
</g>
<g>
</g>
<g>
</g>
<g>
</g>
<g>
</g>
<g>
</g>
<g>
</g>
<g>
</g>
<g>
</g>
<g>
</g>
<g>
</g>
<g>
</g>
<g>
</g>
<g>
</g>
<g>
</g>
</svg>
