<?xml version="1.0" encoding="iso-8859-1"?>
<!-- Generator: Adobe Illustrator 16.0.0, SVG Export Plug-In . SVG Version: 6.00 Build 0)  -->
<!DOCTYPE svg PUBLIC "-//W3C//DTD SVG 1.1//EN" "http://www.w3.org/Graphics/SVG/1.1/DTD/svg11.dtd">
<svg version="1.1" id="Capa_1" xmlns="http://www.w3.org/2000/svg" xmlns:xlink="http://www.w3.org/1999/xlink" x="0px" y="0px"
	 width="100px" height="85px" viewBox="0 0 100 85" style="enable-background:new 0 0 100 85;" xml:space="preserve">
<path d="M45.5,45h9v10H100c0,0-0.74-22.289-1-29.268C98.754,19.101,96.381,15,89,15H72.961c-2.486-4.686-5.162-9.727-5.984-11.274
	C65.322,0.606,64.758,0,61.08,0H38.92c-3.678,0-4.242,0.606-5.896,3.726C32.201,5.273,29.525,10.314,27.041,15H11
	c-7.381,0-9.727,4.102-10,10.732S0,55,0,55h45.5V45z M38.25,9.578C39.396,7.419,39.787,7,42.332,7h15.336
	c2.545,0,2.938,0.419,4.082,2.578c0.43,0.81,1.592,3.001,2.877,5.422H35.373C36.658,12.579,37.82,10.388,38.25,9.578z M54.5,70h-9
	V60h-43c0,0,0.623,8.99,1,16.613C3.656,79.773,4.586,85,12.496,85h75.008c7.91,0,8.82-5.228,8.996-8.387
	c0.436-7.84,1-16.613,1-16.613h-43V70z"/>
<g>
</g>
<g>
</g>
<g>
</g>
<g>
</g>
<g>
</g>
<g>
</g>
<g>
</g>
<g>
</g>
<g>
</g>
<g>
</g>
<g>
</g>
<g>
</g>
<g>
</g>
<g>
</g>
<g>
</g>
</svg>
