<?xml version="1.0" encoding="iso-8859-1"?>
<!-- Generator: Adobe Illustrator 16.0.0, SVG Export Plug-In . SVG Version: 6.00 Build 0)  -->
<!DOCTYPE svg PUBLIC "-//W3C//DTD SVG 1.1//EN" "http://www.w3.org/Graphics/SVG/1.1/DTD/svg11.dtd">
<svg version="1.1" id="Capa_1" xmlns="http://www.w3.org/2000/svg" xmlns:xlink="http://www.w3.org/1999/xlink" x="0px" y="0px"
	 width="78px" height="98px" viewBox="0 0 78 98" style="enable-background:new 0 0 78 98;" xml:space="preserve">
<path d="M77.453,22.628C74.942,7.738,61.354-2.206,47.104,0.42C32.856,3.044,20.833,14.501,23.346,29.392
	c0.541,3.207,2.041,8.227,3.814,11.828L1.287,79.836c-0.954,1.426-1.498,3.991-1.21,5.702l1.664,9.852
	c0.289,1.711,1.863,2.864,3.501,2.563l7.581-1.399c1.639-0.3,3.717-1.742,4.619-3.201l10.233-16.551l0.088-0.108l6.928-1.277
	l11.946-19.393c3.929,0.694,9.562,0.459,12.893-0.154C73.779,53.245,79.967,37.519,77.453,22.628z M64.833,30.261
	c-3.921,5.848-7.919,1.725-13.519-2.371c-5.596-4.096-10.671-6.615-6.754-12.461c3.92-5.85,11.633-7.273,17.231-3.176
	C67.389,16.347,68.75,24.411,64.833,30.261z"/>
<g>
</g>
<g>
</g>
<g>
</g>
<g>
</g>
<g>
</g>
<g>
</g>
<g>
</g>
<g>
</g>
<g>
</g>
<g>
</g>
<g>
</g>
<g>
</g>
<g>
</g>
<g>
</g>
<g>
</g>
</svg>
