<?xml version="1.0" encoding="iso-8859-1"?>
<!-- Generator: Adobe Illustrator 16.0.0, SVG Export Plug-In . SVG Version: 6.00 Build 0)  -->
<!DOCTYPE svg PUBLIC "-//W3C//DTD SVG 1.1//EN" "http://www.w3.org/Graphics/SVG/1.1/DTD/svg11.dtd">
<svg version="1.1" id="Capa_1" xmlns="http://www.w3.org/2000/svg" xmlns:xlink="http://www.w3.org/1999/xlink" x="0px" y="0px"
	 width="25.886px" height="62.058px" viewBox="0 0 25.886 62.058" style="enable-background:new 0 0 25.886 62.058;"
	 xml:space="preserve">
<g>
	<path d="M12.942,13.456c4.458,0,6.688-2.227,6.688-6.684C19.63,2.259,17.4,0,12.942,0C8.485,0,6.258,2.259,6.258,6.772
		C6.258,11.229,8.485,13.456,12.942,13.456z"/>
	<path d="M22.8,16.03H3.086c-0.857,0-1.585,0.299-2.186,0.9C0.3,17.53,0,18.257,0,19.113v19.63h5.486v23.314H20.4V38.743h5.485
		v-19.63c0-0.856-0.315-1.583-0.943-2.183C24.314,16.329,23.6,16.03,22.8,16.03z"/>
</g>
<g>
</g>
<g>
</g>
<g>
</g>
<g>
</g>
<g>
</g>
<g>
</g>
<g>
</g>
<g>
</g>
<g>
</g>
<g>
</g>
<g>
</g>
<g>
</g>
<g>
</g>
<g>
</g>
<g>
</g>
</svg>
