<?xml version="1.0" encoding="iso-8859-1"?>
<!-- Generator: Adobe Illustrator 16.0.0, SVG Export Plug-In . SVG Version: 6.00 Build 0)  -->
<!DOCTYPE svg PUBLIC "-//W3C//DTD SVG 1.1//EN" "http://www.w3.org/Graphics/SVG/1.1/DTD/svg11.dtd">
<svg version="1.1" id="Capa_1" xmlns="http://www.w3.org/2000/svg" xmlns:xlink="http://www.w3.org/1999/xlink" x="0px" y="0px"
	 width="93.508px" height="98.371px" viewBox="0 0 93.508 98.371" style="enable-background:new 0 0 93.508 98.371;"
	 xml:space="preserve">
<g>
	<path d="M24.402,98.371c-6.574,0-12.727-2.789-17.17-7.232C-1.377,82.53-3.777,67.5,8.293,55.43
		c7.072-7.072,35.4-35.398,49.541-49.542c5.02-5.02,11.41-6.958,17.527-5.319c6.008,1.609,10.932,6.531,12.541,12.538
		c1.639,6.121-0.299,12.509-5.318,17.529L35.207,78.014c-2.705,2.705-5.76,4.306-8.832,4.631c-3.041,0.32-5.945-0.659-7.977-2.69
		c-3.686-3.685-4.211-10.621,1.916-16.745L53.592,29.93c1.367-1.367,3.582-1.367,4.949,0c1.367,1.367,1.367,3.583,0,4.949
		L25.264,68.158c-2.877,2.876-3.141,5.622-1.916,6.847c0.537,0.537,1.352,0.779,2.291,0.678c1.441-0.152,3.082-1.083,4.619-2.62
		l47.377-47.376c3.25-3.25,4.496-7.074,3.506-10.766c-0.975-3.637-3.953-6.615-7.59-7.59c-3.691-0.99-7.516,0.256-10.768,3.507
		C48.643,24.979,20.314,53.309,13.242,60.379c-9.23,9.23-7.02,19.85-1.061,25.809c5.959,5.959,16.578,8.171,25.811-1.06
		l49.541-49.542c1.367-1.367,3.582-1.367,4.949,0c1.367,1.367,1.367,3.583,0,4.949L42.941,90.078
		C37.102,95.919,30.566,98.371,24.402,98.371z"/>
</g>
<g>
</g>
<g>
</g>
<g>
</g>
<g>
</g>
<g>
</g>
<g>
</g>
<g>
</g>
<g>
</g>
<g>
</g>
<g>
</g>
<g>
</g>
<g>
</g>
<g>
</g>
<g>
</g>
<g>
</g>
</svg>
