<?xml version="1.0" encoding="iso-8859-1"?>
<!-- Generator: Adobe Illustrator 16.0.0, SVG Export Plug-In . SVG Version: 6.00 Build 0)  -->
<!DOCTYPE svg PUBLIC "-//W3C//DTD SVG 1.1//EN" "http://www.w3.org/Graphics/SVG/1.1/DTD/svg11.dtd">
<svg version="1.1" id="Capa_1" xmlns="http://www.w3.org/2000/svg" xmlns:xlink="http://www.w3.org/1999/xlink" x="0px" y="0px"
	 width="86px" height="86px" viewBox="0 0 86 86" style="enable-background:new 0 0 86 86;" xml:space="preserve">
<path d="M69,43c0,14.361-11.643,26-26,26c-14.361,0-26-11.639-26-26c0-1.711,0.17-3.382,0.484-5H0v34.562
	C0,79.984,6.012,86,13.438,86h59.125C79.98,86,86,79.984,86,72.562V38H68.514C68.83,39.618,69,41.289,69,43z M72.562,0H13.438
	C6.012,0,0,6.018,0,13.438V28h21.768C26.477,21.347,34.229,17,43,17c8.77,0,16.521,4.347,21.229,11H86V13.438
	C86,6.018,79.98,0,72.562,0z M79.131,16.6c0,1.321-1.078,2.4-2.398,2.4h-7.201c-1.318,0-2.4-1.079-2.4-2.4V9.4
	c0-1.321,1.082-2.4,2.4-2.4h7.201c1.32,0,2.398,1.079,2.398,2.4V16.6z M59,43c0-8.837-7.164-16-16-16c-8.838,0-16,7.163-16,16
	s7.162,16,16,16C51.836,59,59,51.837,59,43z"/>
<g>
</g>
<g>
</g>
<g>
</g>
<g>
</g>
<g>
</g>
<g>
</g>
<g>
</g>
<g>
</g>
<g>
</g>
<g>
</g>
<g>
</g>
<g>
</g>
<g>
</g>
<g>
</g>
<g>
</g>
</svg>
