<?xml version="1.0" encoding="iso-8859-1"?>
<!-- Generator: Adobe Illustrator 16.0.0, SVG Export Plug-In . SVG Version: 6.00 Build 0)  -->
<!DOCTYPE svg PUBLIC "-//W3C//DTD SVG 1.1//EN" "http://www.w3.org/Graphics/SVG/1.1/DTD/svg11.dtd">
<svg version="1.1" id="Capa_1" xmlns="http://www.w3.org/2000/svg" xmlns:xlink="http://www.w3.org/1999/xlink" x="0px" y="0px"
	 width="53px" height="70px" viewBox="0 0 53 70" style="enable-background:new 0 0 53 70;" xml:space="preserve">
<g>
	<g>
		<path d="M44,0c-4.972,0-9,1.529-9,6.5v57c0,4.971,4.028,6.5,9,6.5c4.971,0,9-1.529,9-6.5v-57C53,1.529,48.971,0,44,0z"/>
		<path d="M9,0C4.028,0,0,1.529,0,6.5v57C0,68.471,4.028,70,9,70c4.971,0,9-1.529,9-6.5v-57C18,1.529,13.971,0,9,0z"/>
	</g>
</g>
<g>
</g>
<g>
</g>
<g>
</g>
<g>
</g>
<g>
</g>
<g>
</g>
<g>
</g>
<g>
</g>
<g>
</g>
<g>
</g>
<g>
</g>
<g>
</g>
<g>
</g>
<g>
</g>
<g>
</g>
</svg>
