<?xml version="1.0" encoding="iso-8859-1"?>
<!-- Generator: Adobe Illustrator 16.0.0, SVG Export Plug-In . SVG Version: 6.00 Build 0)  -->
<!DOCTYPE svg PUBLIC "-//W3C//DTD SVG 1.1//EN" "http://www.w3.org/Graphics/SVG/1.1/DTD/svg11.dtd">
<svg version="1.1" id="Capa_1" xmlns="http://www.w3.org/2000/svg" xmlns:xlink="http://www.w3.org/1999/xlink" x="0px" y="0px"
	 width="100px" height="70px" viewBox="0 0 100 70" style="enable-background:new 0 0 100 70;" xml:space="preserve">
<path d="M90,0H10C4.5,0,0,4.5,0,10v50c0,5.5,4.5,10,10,10h80c5.5,0,10-4.5,10-10V10C100,4.5,95.5,0,90,0z M90,60H10V30h80V60z
	 M90,15H10v-5h80V15z M20,40.5v3h3v-3H20z M38,46.5v3h6v-3h3v-3h3v-3h-6v3h-3v3H38z M50,49.5v-3h-3v3H50z M35,49.5v-3h-6v3H35z
	 M38,43.5h3v-3h-6v6h3V43.5z M26,46.5h3v-3h3v-3h-6v3h-3v3h-3v3h6V46.5z"/>
<g>
</g>
<g>
</g>
<g>
</g>
<g>
</g>
<g>
</g>
<g>
</g>
<g>
</g>
<g>
</g>
<g>
</g>
<g>
</g>
<g>
</g>
<g>
</g>
<g>
</g>
<g>
</g>
<g>
</g>
</svg>
