<?xml version="1.0" encoding="iso-8859-1"?>
<!-- Generator: Adobe Illustrator 16.0.0, SVG Export Plug-In . SVG Version: 6.00 Build 0)  -->
<!DOCTYPE svg PUBLIC "-//W3C//DTD SVG 1.1//EN" "http://www.w3.org/Graphics/SVG/1.1/DTD/svg11.dtd">
<svg version="1.1" id="Capa_1" xmlns="http://www.w3.org/2000/svg" xmlns:xlink="http://www.w3.org/1999/xlink" x="0px" y="0px"
	 width="92px" height="92px" viewBox="0 0 92 92" style="enable-background:new 0 0 92 92;" xml:space="preserve">
<g>
	<g>
		<path d="M45.998,0C20.596,0,0,20.597,0,46c0,25.405,20.596,46,45.998,46C71.404,92,92,71.405,92,46C92,20.597,71.404,0,45.998,0z
			 M45.998,82C26.119,82,10,65.882,10,46c0-19.883,16.119-36,35.998-36C65.883,10,82,26.117,82,46C82,65.882,65.883,82,45.998,82z"
			/>
		<polygon points="49.5,20 42.498,20 42.498,47.451 59.525,64.475 64.475,59.526 49.5,44.55 		"/>
	</g>
</g>
<g>
</g>
<g>
</g>
<g>
</g>
<g>
</g>
<g>
</g>
<g>
</g>
<g>
</g>
<g>
</g>
<g>
</g>
<g>
</g>
<g>
</g>
<g>
</g>
<g>
</g>
<g>
</g>
<g>
</g>
</svg>
