<?xml version="1.0" encoding="iso-8859-1"?>
<!-- Generator: Adobe Illustrator 16.0.0, SVG Export Plug-In . SVG Version: 6.00 Build 0)  -->
<!DOCTYPE svg PUBLIC "-//W3C//DTD SVG 1.1//EN" "http://www.w3.org/Graphics/SVG/1.1/DTD/svg11.dtd">
<svg version="1.1" id="Capa_1" xmlns="http://www.w3.org/2000/svg" xmlns:xlink="http://www.w3.org/1999/xlink" x="0px" y="0px"
	 width="70px" height="100px" viewBox="0 0 70 100" style="enable-background:new 0 0 70 100;" xml:space="preserve">
<path d="M6.271,98.81c1.53-5.006,3.848-12.058,6.956-22.255c13.531-2.186,19.133,1.739,27.726-13.925
	c-6.975,2.182-15.387-4.042-14.934-6.736c0.452-2.697,19.565,1.944,32.079-16.19c-15.775,3.549-20.82-4.264-18.785-5.445
	c4.697-2.727,18.632-1.132,26.062-8.515c3.828-3.798,5.62-13.042,4.066-16.341C67.566,5.419,56.159-0.521,49.87,0.037
	S33.711,24.479,30.786,24.292c-2.926-0.188-3.513-10.697,1.593-20.468c-5.387,2.43-15.253,9.995-18.349,16.459
	c-5.764,12.028,0.541,39.617-1.481,40.6C10.523,61.865,3.72,48.221,1.689,42.037c-2.773,9.481-2.839,18.98,5.268,31.602
	c-3.058,8.281-4.729,17.811-4.982,22.653C1.86,100.169,5.596,101.002,6.271,98.81z"/>
<g>
</g>
<g>
</g>
<g>
</g>
<g>
</g>
<g>
</g>
<g>
</g>
<g>
</g>
<g>
</g>
<g>
</g>
<g>
</g>
<g>
</g>
<g>
</g>
<g>
</g>
<g>
</g>
<g>
</g>
</svg>
