<?xml version="1.0" encoding="iso-8859-1"?>
<!-- Generator: Adobe Illustrator 16.0.0, SVG Export Plug-In . SVG Version: 6.00 Build 0)  -->
<!DOCTYPE svg PUBLIC "-//W3C//DTD SVG 1.1//EN" "http://www.w3.org/Graphics/SVG/1.1/DTD/svg11.dtd">
<svg version="1.1" id="Capa_1" xmlns="http://www.w3.org/2000/svg" xmlns:xlink="http://www.w3.org/1999/xlink" x="0px" y="0px"
	 width="70px" height="96.737px" viewBox="0 0 70 96.737" style="enable-background:new 0 0 70 96.737;" xml:space="preserve">
<path d="M68.244,24.082L23.25,0.89C17.088-2.357,4.936,3.916,1.445,9.436c-1.559,2.466-1.443,4.249-1.443,5.256l0.555,52.373
	c0.037,1.111,1.438,2.612,2.637,3.348c2.496,1.531,40.297,25.131,41.369,25.799c0.576,0.358,1.256,0.525,1.928,0.525
	c0.572,0,1.146-0.127,1.666-0.385C49.293,95.794,50,94.71,50,93.532V38.523c0-1.145-0.668-2.203-1.756-2.775L7.348,12.918
	c0.463-0.899,2.283-2.801,5.627-4.552c3.523-1.845,6.162-1.148,6.768-0.914c0,0,39.248,21.004,40.449,21.629
	c1.195,0.624,1.219,0.718,1.219,1.786c0,1.067,0,52.2,0,52.2c0,2.604,2.645,3.67,4.584,3.67c1.938,0,4.006-1.9,4.006-3.67V26.858
	C70,25.713,69.328,24.654,68.244,24.082z"/>
<g>
</g>
<g>
</g>
<g>
</g>
<g>
</g>
<g>
</g>
<g>
</g>
<g>
</g>
<g>
</g>
<g>
</g>
<g>
</g>
<g>
</g>
<g>
</g>
<g>
</g>
<g>
</g>
<g>
</g>
</svg>
