<?xml version="1.0" encoding="iso-8859-1"?>
<!-- Generator: Adobe Illustrator 16.0.0, SVG Export Plug-In . SVG Version: 6.00 Build 0)  -->
<!DOCTYPE svg PUBLIC "-//W3C//DTD SVG 1.1//EN" "http://www.w3.org/Graphics/SVG/1.1/DTD/svg11.dtd">
<svg version="1.1" id="Capa_1" xmlns="http://www.w3.org/2000/svg" xmlns:xlink="http://www.w3.org/1999/xlink" x="0px" y="0px"
	 width="90.001px" height="90px" viewBox="0 0 90.001 90" style="enable-background:new 0 0 90.001 90;" xml:space="preserve">
<g>
	<path d="M80.578,9.422c-8.377-8.376-18.895-11.44-22.244-8.09L44.852,14.814c-2.045,2.045-3.828,8.89-3.01,15.818L1.037,71.438
		c-2.42,2.42-0.459,8.305,4.381,13.144c4.84,4.841,10.725,6.801,13.145,4.383l40.805-40.805c6.93,0.818,13.773-0.967,15.818-3.011
		l13.482-13.482C92.018,28.316,88.955,17.799,80.578,9.422z M35.705,50.201c-1.863-1.863-1.256-5.484,1.348-8.09
		c2.605-2.604,6.229-3.211,8.09-1.348c1.859,1.86,1.256,5.484-1.348,8.089C41.189,51.457,37.564,52.061,35.705,50.201z
		 M69.457,20.544c-6.49-6.489-8.119-15.051-7.543-15.63c0.578-0.578,8.803,1.389,15.295,7.878
		c6.488,6.491,8.436,14.734,7.877,15.294C84.527,28.645,75.945,27.035,69.457,20.544z"/>
</g>
<g>
</g>
<g>
</g>
<g>
</g>
<g>
</g>
<g>
</g>
<g>
</g>
<g>
</g>
<g>
</g>
<g>
</g>
<g>
</g>
<g>
</g>
<g>
</g>
<g>
</g>
<g>
</g>
<g>
</g>
</svg>
