<?xml version="1.0" encoding="iso-8859-1"?>
<!-- Generator: Adobe Illustrator 16.0.0, SVG Export Plug-In . SVG Version: 6.00 Build 0)  -->
<!DOCTYPE svg PUBLIC "-//W3C//DTD SVG 1.1//EN" "http://www.w3.org/Graphics/SVG/1.1/DTD/svg11.dtd">
<svg version="1.1" id="Capa_1" xmlns="http://www.w3.org/2000/svg" xmlns:xlink="http://www.w3.org/1999/xlink" x="0px" y="0px"
	 width="68px" height="82px" viewBox="0 0 68 82" style="enable-background:new 0 0 68 82;" xml:space="preserve">
<g>
	<path d="M34.001,0C12.603,0-0.692,7.051,0.028,12.77l7.209,59.335C7.526,74.413,18.343,81.988,34.001,82
		c15.656-0.012,26.473-7.587,26.762-9.896l7.209-59.335C68.692,7.051,55.399,0,34.001,0z M34.001,21.453
		c-15.658-0.011-26.764-5.59-26.764-7.674c-0.008-2.071,11.107-7.658,26.764-7.65c15.654-0.008,26.771,5.579,26.762,7.65
		C60.763,15.863,49.657,21.442,34.001,21.453z"/>
</g>
<g>
</g>
<g>
</g>
<g>
</g>
<g>
</g>
<g>
</g>
<g>
</g>
<g>
</g>
<g>
</g>
<g>
</g>
<g>
</g>
<g>
</g>
<g>
</g>
<g>
</g>
<g>
</g>
<g>
</g>
</svg>
