<?xml version="1.0" encoding="iso-8859-1"?>
<!-- Generator: Adobe Illustrator 16.0.0, SVG Export Plug-In . SVG Version: 6.00 Build 0)  -->
<!DOCTYPE svg PUBLIC "-//W3C//DTD SVG 1.1//EN" "http://www.w3.org/Graphics/SVG/1.1/DTD/svg11.dtd">
<svg version="1.1" id="Capa_1" xmlns="http://www.w3.org/2000/svg" xmlns:xlink="http://www.w3.org/1999/xlink" x="0px" y="0px"
	 width="95.999px" height="94px" viewBox="0 0 95.999 94" style="enable-background:new 0 0 95.999 94;" xml:space="preserve">
<path d="M11.815,64.812C4.246,72.252,10.639,79.891,0.58,91.215c-4.54,5.113,18.69,3.554,30.199-7.76
	c4.882-4.798,3.505-11.793-1.731-16.941C23.812,61.366,16.696,60.014,11.815,64.812z M95.701,0.293
	c-3.886-3.817-46.895,30.647-59.699,43.235c-6.354,6.246-8.476,9.595-10.424,12.1c-0.847,1.087,0.272,1.424,0.776,1.681
	c2.517,1.281,4.277,2.475,6.553,4.712c2.277,2.237,3.492,3.968,4.795,6.441c0.261,0.496,0.604,1.597,1.708,0.766
	c2.55-1.915,5.955-4.001,12.309-10.248C64.524,46.392,99.583,4.111,95.701,0.293z"/>
<g>
</g>
<g>
</g>
<g>
</g>
<g>
</g>
<g>
</g>
<g>
</g>
<g>
</g>
<g>
</g>
<g>
</g>
<g>
</g>
<g>
</g>
<g>
</g>
<g>
</g>
<g>
</g>
<g>
</g>
</svg>
