<?xml version="1.0" encoding="utf-8"?>
<!-- Generator: Adobe Illustrator 16.0.4, SVG Export Plug-In . SVG Version: 6.00 Build 0)  -->
<!DOCTYPE svg PUBLIC "-//W3C//DTD SVG 1.1//EN" "http://www.w3.org/Graphics/SVG/1.1/DTD/svg11.dtd">
<svg version="1.1" id="Capa_1" xmlns="http://www.w3.org/2000/svg" xmlns:xlink="http://www.w3.org/1999/xlink" x="0px" y="0px"
	 width="100px" height="87.5px" viewBox="0 -43.5 100 87.5" enable-background="new 0 -43.5 100 87.5" xml:space="preserve">
<path d="M3.361,17.531L5,10.529L3.361,3.291C3.316,3.076,2.904,2.912,2.402,2.912c-0.508,0-0.92,0.164-0.959,0.381L0,10.529
	l1.443,7.002c0.039,0.217,0.451,0.381,0.959,0.381C2.904,17.912,3.316,17.748,3.361,17.531z M13.611,21.418L15,10.598l-1.389-16.74
	c-0.041-0.426-0.561-0.76-1.191-0.76c-0.635,0-1.156,0.334-1.188,0.76L10,10.598l1.232,10.82c0.031,0.422,0.553,0.756,1.188,0.756
	C13.051,22.174,13.57,21.844,13.611,21.418z M23.84,21.24L25,10.604l-1.16-22.287c-0.031-0.523-0.648-0.934-1.404-0.934
	c-0.762,0-1.379,0.41-1.406,0.934L20,10.604l1.029,10.642c0.027,0.519,0.645,0.928,1.406,0.928
	C23.191,22.172,23.809,21.764,23.84,21.24z M34.049,21.082L35,10.605l-0.951-22.449c-0.023-0.621-0.727-1.107-1.6-1.107
	c-0.879,0-1.582,0.486-1.604,1.107L30,10.605l0.85,10.475c0.018,0.615,0.721,1.102,1.6,1.102
	C33.322,22.182,34.025,21.703,34.049,21.082z M44.248,20.949L45,10.609l-0.752-25.74c-0.016-0.707-0.818-1.281-1.787-1.281
	c-0.971,0-1.771,0.576-1.787,1.281L40,10.602c0,0.017,0.674,10.349,0.674,10.349c0.016,0.698,0.816,1.272,1.787,1.272
	C43.43,22.223,44.232,21.656,44.248,20.949z M51.391,22.23c0.033,0.002,35.492,0.02,35.723,0.02C94.232,22.25,100,16.67,100,9.787
	c0-6.885-5.768-12.465-12.887-12.465c-1.766,0-3.449,0.348-4.984,0.969C81.104-12.939,71.363-21.75,59.484-21.75
	c-2.906,0-5.742,0.553-8.244,1.488c-0.972,0.366-1.232,0.739-1.24,1.467v39.553C50.01,21.52,50.621,22.156,51.391,22.23z"/>
</svg>
