<?xml version="1.0" encoding="iso-8859-1"?>
<!-- Generator: Adobe Illustrator 16.0.0, SVG Export Plug-In . SVG Version: 6.00 Build 0)  -->
<!DOCTYPE svg PUBLIC "-//W3C//DTD SVG 1.1//EN" "http://www.w3.org/Graphics/SVG/1.1/DTD/svg11.dtd">
<svg version="1.1" id="Capa_1" xmlns="http://www.w3.org/2000/svg" xmlns:xlink="http://www.w3.org/1999/xlink" x="0px" y="0px"
	 width="96px" height="96px" viewBox="0 0 96 96" style="enable-background:new 0 0 96 96;" xml:space="preserve">
<path d="M48,0C21.492,0,0,21.49,0,48c0,12.12,4.491,23.187,11.902,31.632c7.506-7.51,17.791-11.727,29.597-11.342
	c15.062,0.485,26.949,7.619,33.768,19.217C87.791,78.845,96,64.386,96,48C96,21.49,74.508,0,48,0z M71.467,65.11
	c-0.844,1.398-2.656,1.832-4.048,0.984c-11.116-6.791-25.097-8.326-41.573-4.564c-1.582,0.366-3.167-0.627-3.527-2.221
	c-0.366-1.58,0.623-3.166,2.215-3.528c18.025-4.118,33.487-2.339,45.956,5.271C71.879,61.905,72.322,63.72,71.467,65.11z
	 M77.256,51.497c-1.064,1.734-3.336,2.278-5.068,1.207c-12.716-7.816-32.107-10.078-47.15-5.51
	c-1.955,0.588-4.014-0.512-4.602-2.457c-0.59-1.953,0.509-4.012,2.454-4.602c17.187-5.221,38.553-2.692,53.161,6.283
	C77.783,47.494,78.33,49.753,77.256,51.497z M77.757,37.391C62.508,28.325,37.349,27.5,22.79,31.915
	c-2.338,0.715-4.81-0.607-5.525-2.946c-0.703-2.343,0.616-4.815,2.953-5.519c16.718-5.076,44.499-4.101,62.057,6.328
	c2.101,1.248,2.795,3.961,1.549,6.065C82.57,37.943,79.862,38.632,77.757,37.391z M41.19,82.641
	c-6.75-0.218-12.371,2.417-16.479,7.339C31.608,93.813,39.548,96,48,96c4.076,0,8.03-0.509,11.811-1.466
	C56.188,87.104,49.873,82.923,41.19,82.641z"/>
<g>
</g>
<g>
</g>
<g>
</g>
<g>
</g>
<g>
</g>
<g>
</g>
<g>
</g>
<g>
</g>
<g>
</g>
<g>
</g>
<g>
</g>
<g>
</g>
<g>
</g>
<g>
</g>
<g>
</g>
</svg>
