<?xml version="1.0" encoding="iso-8859-1"?>
<!-- Generator: Adobe Illustrator 16.0.0, SVG Export Plug-In . SVG Version: 6.00 Build 0)  -->
<!DOCTYPE svg PUBLIC "-//W3C//DTD SVG 1.1//EN" "http://www.w3.org/Graphics/SVG/1.1/DTD/svg11.dtd">
<svg version="1.1" id="Capa_1" xmlns="http://www.w3.org/2000/svg" xmlns:xlink="http://www.w3.org/1999/xlink" x="0px" y="0px"
	 width="100px" height="86px" viewBox="0 0 100 86" style="enable-background:new 0 0 100 86;" xml:space="preserve">
<path d="M3.448,49.655l6.816,1.689l5.132-8.056l-9.752-2.418c-2.441-0.607-4.904,0.873-5.509,3.299
	C-0.471,46.596,1.012,49.051,3.448,49.655z M92.405,50.958L70.093,71.044L43.855,50.741c-0.5-0.387-1.076-0.665-1.691-0.817
	l-3.493-0.866l-5.132,8.057l5.497,1.362l28.488,22.044c0.824,0.637,1.808,0.952,2.788,0.952c1.096,0,2.188-0.393,3.05-1.168
	l25.14-22.632c1.862-1.676,2.007-4.538,0.324-6.393C97.143,49.427,94.269,49.28,92.405,50.958z M43.419,28.901l24.437,15.644
	c2.062,1.318,4.803,0.773,6.197-1.233l25.141-36.21c1.428-2.056,0.91-4.875-1.154-6.297c-2.067-1.423-4.896-0.907-6.324,1.149
	L69.074,34.562L44.488,18.824c-1.018-0.651-2.254-0.869-3.438-0.612c-1.182,0.26-2.21,0.978-2.858,1.995L0.709,79.048
	c-1.346,2.111-0.717,4.908,1.402,6.247C2.866,85.771,3.709,86,4.542,86c1.505,0,2.977-0.743,3.842-2.103L43.419,28.901z"/>
<g>
</g>
<g>
</g>
<g>
</g>
<g>
</g>
<g>
</g>
<g>
</g>
<g>
</g>
<g>
</g>
<g>
</g>
<g>
</g>
<g>
</g>
<g>
</g>
<g>
</g>
<g>
</g>
<g>
</g>
</svg>
