<?xml version="1.0" encoding="iso-8859-1"?>
<!-- Generator: Adobe Illustrator 16.0.0, SVG Export Plug-In . SVG Version: 6.00 Build 0)  -->
<!DOCTYPE svg PUBLIC "-//W3C//DTD SVG 1.1//EN" "http://www.w3.org/Graphics/SVG/1.1/DTD/svg11.dtd">
<svg version="1.1" id="Capa_1" xmlns="http://www.w3.org/2000/svg" xmlns:xlink="http://www.w3.org/1999/xlink" x="0px" y="0px"
	 width="100px" height="76px" viewBox="0 0 100 76" style="enable-background:new 0 0 100 76;" xml:space="preserve">
<path d="M55.256,28.296l6.822,3.297l10.294-3.297v-5.969C72.372,10.016,62.336,0,50,0S27.628,10.016,27.628,22.327v31.346
	c0,2.892-2.358,5.244-5.256,5.244s-5.255-2.353-5.255-5.244V40.548H0v13.125C0,65.984,10.036,76,22.372,76
	c12.337,0,22.372-10.016,22.372-22.327V22.327c0-2.892,2.358-5.244,5.256-5.244s5.256,2.353,5.256,5.244V28.296z M82.883,40.548
	v13.125c0,2.892-2.357,5.244-5.255,5.244s-5.256-2.353-5.256-5.244V40.284l-10.294,3.297l-6.822-3.297v13.389
	C55.256,65.984,65.291,76,77.628,76C89.963,76,100,65.984,100,53.673V40.548H82.883z"/>
<g>
</g>
<g>
</g>
<g>
</g>
<g>
</g>
<g>
</g>
<g>
</g>
<g>
</g>
<g>
</g>
<g>
</g>
<g>
</g>
<g>
</g>
<g>
</g>
<g>
</g>
<g>
</g>
<g>
</g>
</svg>
