<?xml version="1.0" encoding="iso-8859-1"?>
<!-- Generator: Adobe Illustrator 16.0.0, SVG Export Plug-In . SVG Version: 6.00 Build 0)  -->
<!DOCTYPE svg PUBLIC "-//W3C//DTD SVG 1.1//EN" "http://www.w3.org/Graphics/SVG/1.1/DTD/svg11.dtd">
<svg version="1.1" id="Capa_1" xmlns="http://www.w3.org/2000/svg" xmlns:xlink="http://www.w3.org/1999/xlink" x="0px" y="0px"
	 width="96px" height="96px" viewBox="0 0 96 96" style="enable-background:new 0 0 96 96;" xml:space="preserve">
<path d="M48,0C21.488,0,0,21.49,0,48c0,26.511,21.488,48,48,48c26.51,0,48-21.489,48-48C96,21.49,74.51,0,48,0z M48,36.927
	c-1.465,0-2.656,1.188-2.656,2.649v15.838c0,6.221-5.07,11.281-11.303,11.281s-11.305-5.061-11.305-11.281v-6.631h8.648v6.631
	c0,1.461,1.191,2.65,2.656,2.65c1.463,0,2.656-1.189,2.656-2.65V39.576c0-6.221,5.07-11.281,11.303-11.281
	s11.305,5.061,11.305,11.281v3.016l-5.201,1.666l-3.449-1.666v-3.016C50.654,38.115,49.465,36.927,48,36.927z M73.264,55.414
	c0,6.221-5.072,11.281-11.305,11.281c-6.234,0-11.305-5.061-11.305-11.281v-6.765l3.449,1.665l5.201-1.665v6.765
	c0,1.461,1.189,2.65,2.654,2.65s2.654-1.189,2.654-2.65v-6.631h8.65V55.414z"/>
<g>
</g>
<g>
</g>
<g>
</g>
<g>
</g>
<g>
</g>
<g>
</g>
<g>
</g>
<g>
</g>
<g>
</g>
<g>
</g>
<g>
</g>
<g>
</g>
<g>
</g>
<g>
</g>
<g>
</g>
</svg>
