<?xml version="1.0" encoding="iso-8859-1"?>
<!-- Generator: Adobe Illustrator 16.0.0, SVG Export Plug-In . SVG Version: 6.00 Build 0)  -->
<!DOCTYPE svg PUBLIC "-//W3C//DTD SVG 1.1//EN" "http://www.w3.org/Graphics/SVG/1.1/DTD/svg11.dtd">
<svg version="1.1" id="Capa_1" xmlns="http://www.w3.org/2000/svg" xmlns:xlink="http://www.w3.org/1999/xlink" x="0px" y="0px"
	 width="100px" height="90px" viewBox="0 0 100 90" style="enable-background:new 0 0 100 90;" xml:space="preserve">
<path d="M90,15h-5v75h5c5.5,0,10-4.5,10-10V25C100,19.5,95.5,15,90,15z M0,25v55c0,5.5,4.5,10,10,10h5V15h-5C4.5,15,0,19.5,0,25z
	 M67,4.533C63.596,2.951,58.158,0,50,0S36.404,2.951,33,4.533V15H22v75h56V15H67V4.533z M61,15H39V8.322C41.668,7.174,45.488,6,50,6
	s8.332,1.174,11,2.322V15z"/>
<g>
</g>
<g>
</g>
<g>
</g>
<g>
</g>
<g>
</g>
<g>
</g>
<g>
</g>
<g>
</g>
<g>
</g>
<g>
</g>
<g>
</g>
<g>
</g>
<g>
</g>
<g>
</g>
<g>
</g>
</svg>
