<?xml version="1.0" encoding="iso-8859-1"?>
<!-- Generator: Adobe Illustrator 16.0.0, SVG Export Plug-In . SVG Version: 6.00 Build 0)  -->
<!DOCTYPE svg PUBLIC "-//W3C//DTD SVG 1.1//EN" "http://www.w3.org/Graphics/SVG/1.1/DTD/svg11.dtd">
<svg version="1.1" id="Capa_1" xmlns="http://www.w3.org/2000/svg" xmlns:xlink="http://www.w3.org/1999/xlink" x="0px" y="0px"
	 width="96px" height="100px" viewBox="0 0 96 100" style="enable-background:new 0 0 96 100;" xml:space="preserve">
<g>
	<path d="M94.456,2.028c-0.544-1.577-2.248-2.408-3.804-1.859c-1.557,0.549-2.379,2.272-1.837,3.849
		c4.599,13.351-4.53,23.317-11.485,28.657l-2.817-4.072c-0.942-1.361-3.058-2.495-4.699-2.52l-15.777,0.072
		c-1.64-0.026-4.085,0.735-5.43,1.689L2.123,60.786c-2.251,1.596-2.799,4.736-1.223,7.016L22.027,98.34
		c1.577,2.28,4.111,2.007,6.362,0.412l46.483-32.941c1.345-0.955,2.885-3.02,3.426-4.59l4.94-15.731
		c0.538-1.571,0.21-3.969-0.733-5.331l-1.717-2.481C90.139,30.451,99.841,17.665,94.456,2.028z M72.829,48.808
		c-3.603,2.552-8.569,1.665-11.091-1.98c-2.523-3.648-1.648-8.672,1.957-11.227c2.859-2.027,6.573-1.879,9.246,0.088
		c-1.346,0.82-2.269,1.292-2.445,1.376c-1.49,0.712-2.127,2.512-1.426,4.02c0.51,1.095,1.584,1.736,2.705,1.736
		c0.426,0,0.859-0.094,1.271-0.29c0.958-0.457,1.989-1.009,3.064-1.652C76.595,43.845,75.426,46.968,72.829,48.808z"/>
</g>
<g>
</g>
<g>
</g>
<g>
</g>
<g>
</g>
<g>
</g>
<g>
</g>
<g>
</g>
<g>
</g>
<g>
</g>
<g>
</g>
<g>
</g>
<g>
</g>
<g>
</g>
<g>
</g>
<g>
</g>
</svg>
