<?xml version="1.0" encoding="iso-8859-1"?>
<!-- Generator: Adobe Illustrator 16.0.0, SVG Export Plug-In . SVG Version: 6.00 Build 0)  -->
<!DOCTYPE svg PUBLIC "-//W3C//DTD SVG 1.1//EN" "http://www.w3.org/Graphics/SVG/1.1/DTD/svg11.dtd">
<svg version="1.1" id="Capa_1" xmlns="http://www.w3.org/2000/svg" xmlns:xlink="http://www.w3.org/1999/xlink" x="0px" y="0px"
	 width="91.999px" height="91.847px" viewBox="0 0 91.999 91.847" style="enable-background:new 0 0 91.999 91.847;"
	 xml:space="preserve">
<path d="M81.025,61.018c-3.896-2.742-8.754-2.549-11.52,1.379c-2.764,3.926-22.088,28.164-53.752,18.102
	c1.193,1.039,2.451,2.027,3.771,2.957c20.768,14.625,49.461,9.643,64.086-11.127C86.377,68.4,84.918,63.762,81.025,61.018z
	 M19.924,57.926C17.906,53.568,6.578,24.713,31.123,2.322c-1.496,0.514-2.98,1.107-4.445,1.787
	C3.629,14.785-6.406,42.125,4.27,65.176c2.018,4.357,6.764,5.418,11.088,3.416C19.678,66.59,21.941,62.285,19.924,57.926z
	 M50.133,0.035c-4.781-0.43-8.072,3.15-8.5,7.895c-0.426,4.746,2.17,8.857,6.953,9.287c4.781,0.432,35.434,5.049,42.549,37.504
	c0.305-1.553,0.531-3.135,0.676-4.746C94.092,24.674,75.432,2.316,50.133,0.035z M30.457,48.57
	c-1.318,3.102-1.531,6.062-0.473,6.613c0.729,0.381,1.873-0.486,2.943-2.078c0.424,1.736,1.473,3.305,2.971,4.566
	c-1.572,0.58-2.598,1.527-2.598,2.6c0,1.766,2.777,3.195,6.205,3.195c3.092,0,5.652-1.162,6.125-2.686
	c0.127-0.002,0.615-0.002,0.738,0c0.475,1.523,3.037,2.686,6.127,2.686c3.428,0,6.205-1.43,6.205-3.195
	c0-1.072-1.025-2.02-2.598-2.6c1.496-1.262,2.549-2.83,2.971-4.566c1.07,1.592,2.211,2.459,2.941,2.078
	c1.059-0.551,0.85-3.512-0.471-6.613c-1.035-2.436-2.441-4.232-3.514-4.629c0.016-0.154,0.023-0.311,0.023-0.469
	c0-0.941-0.262-1.811-0.709-2.52c0.008-0.055,0.008-0.111,0.008-0.166c0-0.434-0.104-0.84-0.279-1.191
	c-0.271-6.336-4.396-11.369-11.072-11.369c-6.678,0-10.805,5.033-11.074,11.369c-0.178,0.352-0.281,0.758-0.281,1.191
	c0,0.055,0.004,0.111,0.006,0.166c-0.443,0.709-0.705,1.578-0.705,2.52c0,0.158,0.006,0.314,0.02,0.469
	C32.9,44.338,31.49,46.135,30.457,48.57z"/>
<g>
</g>
<g>
</g>
<g>
</g>
<g>
</g>
<g>
</g>
<g>
</g>
<g>
</g>
<g>
</g>
<g>
</g>
<g>
</g>
<g>
</g>
<g>
</g>
<g>
</g>
<g>
</g>
<g>
</g>
</svg>
