<?xml version="1.0" encoding="iso-8859-1"?>
<!-- Generator: Adobe Illustrator 16.0.0, SVG Export Plug-In . SVG Version: 6.00 Build 0)  -->
<!DOCTYPE svg PUBLIC "-//W3C//DTD SVG 1.1//EN" "http://www.w3.org/Graphics/SVG/1.1/DTD/svg11.dtd">
<svg version="1.1" id="Capa_1" xmlns="http://www.w3.org/2000/svg" xmlns:xlink="http://www.w3.org/1999/xlink" x="0px" y="0px"
	 width="54px" height="100px" viewBox="0 0 54 100" style="enable-background:new 0 0 54 100;" xml:space="preserve">
<path d="M40,49.334V5c0-2.762-2.238-5-5-5H18c-2.762,0-4,2.238-4,5v44.334C5.656,53.928,0,62.803,0,73c0,14.912,12.089,27,27,27
	c14.912,0,27-12.088,27-27C54,62.803,48.343,53.928,40,49.334z M27,90c-9.388,0-17-7.611-17-17c0-7.769,5.217-14.306,12.334-16.336
	V20h10v36.866C39.107,59.105,44,65.477,44,73C44,82.389,36.388,90,27,90z"/>
<g>
</g>
<g>
</g>
<g>
</g>
<g>
</g>
<g>
</g>
<g>
</g>
<g>
</g>
<g>
</g>
<g>
</g>
<g>
</g>
<g>
</g>
<g>
</g>
<g>
</g>
<g>
</g>
<g>
</g>
</svg>
