<?xml version="1.0" encoding="iso-8859-1"?>
<!-- Generator: Adobe Illustrator 16.0.0, SVG Export Plug-In . SVG Version: 6.00 Build 0)  -->
<!DOCTYPE svg PUBLIC "-//W3C//DTD SVG 1.1//EN" "http://www.w3.org/Graphics/SVG/1.1/DTD/svg11.dtd">
<svg version="1.1" id="Capa_1" xmlns="http://www.w3.org/2000/svg" xmlns:xlink="http://www.w3.org/1999/xlink" x="0px" y="0px"
	 width="80px" height="90px" viewBox="0 0 80 90" style="enable-background:new 0 0 80 90;" xml:space="preserve">
<path d="M21.759,58.186c0.659,1.777-17.699,18.172-6.99,31.457c2.507,3.109,11.006-14.875,23.077-23.018
	C44.505,62.133,60,52.572,60,47.29V13.088C60,6.728,35.432,0,16.754,0C9.917,0,0,42.876,0,49.688
	C0,56.525,21.1,56.408,21.759,58.186z M65,57.71c3.288,0,15-2,15-15.608v-24.24C80,4.253,68.288,2.753,65,2.753
	c-3.287,0,5,2.863,5,11.297v31.865C70,54.756,61.713,57.71,65,57.71z"/>
<g>
</g>
<g>
</g>
<g>
</g>
<g>
</g>
<g>
</g>
<g>
</g>
<g>
</g>
<g>
</g>
<g>
</g>
<g>
</g>
<g>
</g>
<g>
</g>
<g>
</g>
<g>
</g>
<g>
</g>
</svg>
