<?xml version="1.0" encoding="iso-8859-1"?>
<!-- Generator: Adobe Illustrator 16.0.0, SVG Export Plug-In . SVG Version: 6.00 Build 0)  -->
<!DOCTYPE svg PUBLIC "-//W3C//DTD SVG 1.1//EN" "http://www.w3.org/Graphics/SVG/1.1/DTD/svg11.dtd">
<svg version="1.1" id="Capa_1" xmlns="http://www.w3.org/2000/svg" xmlns:xlink="http://www.w3.org/1999/xlink" x="0px" y="0px"
	 width="96px" height="90px" viewBox="0 0 96 90" style="enable-background:new 0 0 96 90;" xml:space="preserve">
<path d="M47.999,55.393c11.951,0,21.955-4.061,22.561-9.362c-1.777-4.985-3.715-10.421-5.619-15.764
	c-1.322,3.811-8.623,6.498-16.941,6.498c-8.316,0-15.617-2.688-16.941-6.497c-1.904,5.342-3.84,10.777-5.617,15.763
	C26.046,51.332,36.048,55.393,47.999,55.393z M47.999,21.867c5.617,0,10.836-1.739,12.363-4.439
	c-2.105-5.913-3.914-10.986-5.057-14.187C54.546,1.108,51.104,0,47.999,0s-6.547,1.108-7.307,3.241
	c-1.141,3.201-2.949,8.274-5.057,14.187C37.163,20.128,42.384,21.867,47.999,21.867z M91.903,60.332l-18.777-7.563l2.162,6.033
	c-0.109,6.394-12.521,11.489-27.289,11.489c-14.766,0-27.18-5.095-27.287-11.489l2.16-6.033L4.097,60.332
	c-5.264,2.121-5.484,6.049-0.49,8.726l35.312,18.935c4.994,2.677,13.168,2.677,18.162,0l35.312-18.935
	C97.388,66.381,97.167,62.453,91.903,60.332z"/>
<g>
</g>
<g>
</g>
<g>
</g>
<g>
</g>
<g>
</g>
<g>
</g>
<g>
</g>
<g>
</g>
<g>
</g>
<g>
</g>
<g>
</g>
<g>
</g>
<g>
</g>
<g>
</g>
<g>
</g>
</svg>
