<?xml version="1.0" encoding="iso-8859-1"?>
<!-- Generator: Adobe Illustrator 16.0.0, SVG Export Plug-In . SVG Version: 6.00 Build 0)  -->
<!DOCTYPE svg PUBLIC "-//W3C//DTD SVG 1.1//EN" "http://www.w3.org/Graphics/SVG/1.1/DTD/svg11.dtd">
<svg version="1.1" id="Capa_1" xmlns="http://www.w3.org/2000/svg" xmlns:xlink="http://www.w3.org/1999/xlink" x="0px" y="0px"
	 width="56px" height="92px" viewBox="0 0 56 92" style="enable-background:new 0 0 56 92;" xml:space="preserve">
<path d="M56,86.982c-3.885,1.852-7.402,3.152-10.547,3.898C42.303,91.625,38.895,92,35.236,92c-4.154,0-7.828-0.535-11.023-1.594
	c-3.191-1.066-5.912-2.58-8.172-4.54c-2.256-1.969-3.82-4.061-4.689-6.274c-0.871-2.215-1.305-5.425-1.305-9.629v-32.27H0V24.678
	c3.568-1.176,6.631-2.855,9.176-5.051c2.547-2.189,4.59-4.826,6.131-7.9c1.541-3.07,2.6-6.979,3.182-11.727h12.926v23.256h21.574
	v14.438H31.414v23.594c0,5.333,0.279,8.756,0.842,10.273c0.555,1.512,1.596,2.722,3.109,3.626c2.018,1.22,4.314,1.83,6.902,1.83
	c4.604,0,9.18-1.517,13.732-4.544V86.982z"/>
<g>
</g>
<g>
</g>
<g>
</g>
<g>
</g>
<g>
</g>
<g>
</g>
<g>
</g>
<g>
</g>
<g>
</g>
<g>
</g>
<g>
</g>
<g>
</g>
<g>
</g>
<g>
</g>
<g>
</g>
</svg>
