<?xml version="1.0" encoding="iso-8859-1"?>
<!-- Generator: Adobe Illustrator 16.0.0, SVG Export Plug-In . SVG Version: 6.00 Build 0)  -->
<!DOCTYPE svg PUBLIC "-//W3C//DTD SVG 1.1//EN" "http://www.w3.org/Graphics/SVG/1.1/DTD/svg11.dtd">
<svg version="1.1" id="Capa_1" xmlns="http://www.w3.org/2000/svg" xmlns:xlink="http://www.w3.org/1999/xlink" x="0px" y="0px"
	 width="96px" height="96px" viewBox="0 0 96 96" style="enable-background:new 0 0 96 96;" xml:space="preserve">
<path d="M48,0C21.49,0,0,21.49,0,48s21.49,48,48,48s48-21.49,48-48S74.51,0,48,0z M35.174,58.105c-5.475,0-9.91-4.52-9.91-10.104
	s4.436-10.107,9.91-10.107s9.915,4.523,9.915,10.107S40.648,58.105,35.174,58.105z M60.823,58.105c-5.476,0-9.917-4.52-9.917-10.104
	s4.441-10.107,9.917-10.107c5.473,0,9.913,4.523,9.913,10.107S66.296,58.105,60.823,58.105z"/>
<g>
</g>
<g>
</g>
<g>
</g>
<g>
</g>
<g>
</g>
<g>
</g>
<g>
</g>
<g>
</g>
<g>
</g>
<g>
</g>
<g>
</g>
<g>
</g>
<g>
</g>
<g>
</g>
<g>
</g>
</svg>
