<?xml version="1.0" encoding="iso-8859-1"?>
<!-- Generator: Adobe Illustrator 16.0.0, SVG Export Plug-In . SVG Version: 6.00 Build 0)  -->
<!DOCTYPE svg PUBLIC "-//W3C//DTD SVG 1.1//EN" "http://www.w3.org/Graphics/SVG/1.1/DTD/svg11.dtd">
<svg version="1.1" id="Capa_1" xmlns="http://www.w3.org/2000/svg" xmlns:xlink="http://www.w3.org/1999/xlink" x="0px" y="0px"
	 width="70px" height="70.001px" viewBox="0 0 70 70.001" style="enable-background:new 0 0 70 70.001;" xml:space="preserve">
<path d="M35,19.001c-8.873,0-15.998,7.127-15.998,16s7.125,16,15.998,16s16-7.127,16-16S43.873,19.001,35,19.001z M35,45.251
	c-5.662,0-10.25-4.588-10.25-10.25s4.588-10.25,10.25-10.25s10.25,4.588,10.25,10.25S40.662,45.251,35,45.251z M5,31.001
	c-2.762,0-5,1.791-5,4s2.238,4,5,4s4.9-1.791,4.9-4S7.762,31.001,5,31.001z M59.537,10.465c-1.562-1.562-4.412-1.244-6.365,0.707
	c-1.951,1.953-2.268,4.802-0.705,6.363c1.562,1.563,4.41,1.247,6.363-0.705C60.781,14.878,61.1,12.027,59.537,10.465z M65,31.001
	c-2.762,0-4.9,1.791-4.9,4s2.139,4,4.9,4s5-1.791,5-4S67.762,31.001,65,31.001z M35,60.001c-2.209,0-4,2.238-4,5s1.791,5,4,5
	s4-2.238,4-5S37.209,60.001,35,60.001z M11.172,53.673c-1.951,1.951-2.27,4.801-0.707,6.363s4.412,1.244,6.363-0.707
	c1.953-1.953,2.27-4.803,0.709-6.365C15.975,51.403,13.125,51.72,11.172,53.673z M10.215,10.715
	c-1.562,1.562-1.244,4.412,0.707,6.365c1.953,1.951,4.803,2.268,6.365,0.705s1.246-4.41-0.707-6.363
	C14.629,9.471,11.777,9.152,10.215,10.715z M53.424,59.079c1.951,1.951,4.801,2.27,6.363,0.707s1.244-4.412-0.707-6.363
	c-1.953-1.953-4.803-2.27-6.365-0.709C51.154,54.276,51.471,57.126,53.424,59.079z M35,10c2.209,0,4-2.238,4-5s-1.791-5-4-5
	s-4,2.238-4,5S32.791,10,35,10z"/>
<g>
</g>
<g>
</g>
<g>
</g>
<g>
</g>
<g>
</g>
<g>
</g>
<g>
</g>
<g>
</g>
<g>
</g>
<g>
</g>
<g>
</g>
<g>
</g>
<g>
</g>
<g>
</g>
<g>
</g>
</svg>
