<?xml version="1.0" encoding="iso-8859-1"?>
<!-- Generator: Adobe Illustrator 16.0.0, SVG Export Plug-In . SVG Version: 6.00 Build 0)  -->
<!DOCTYPE svg PUBLIC "-//W3C//DTD SVG 1.1//EN" "http://www.w3.org/Graphics/SVG/1.1/DTD/svg11.dtd">
<svg version="1.1" id="Capa_1" xmlns="http://www.w3.org/2000/svg" xmlns:xlink="http://www.w3.org/1999/xlink" x="0px" y="0px"
	 width="56px" height="100px" viewBox="0 0 56 100" style="enable-background:new 0 0 56 100;" xml:space="preserve">
<g>
	<path d="M55.011,72.016L41.882,34.333c-3.612-10.367-14.831-16.097-25.46-13.267L6.54,1.896c-0.896-1.735-2.991-2.4-4.688-1.484
		C0.156,1.329-0.493,3.482,0.403,5.217l9.646,18.712C2.362,29.026-1.631,38.694,0.9,47.799L11.598,86.28
		c3.007,10.814,15.398,16.324,27.854,12.516C51.747,94.474,58.703,82.605,55.011,72.016z M22.5,44.612
		c-3.65,1.2-7.558-0.859-8.728-4.601c-1.171-3.74,0.839-7.746,4.489-8.943c3.65-1.201,7.559,0.859,8.729,4.6
		C28.162,39.409,26.151,43.414,22.5,44.612z"/>
</g>
<g>
</g>
<g>
</g>
<g>
</g>
<g>
</g>
<g>
</g>
<g>
</g>
<g>
</g>
<g>
</g>
<g>
</g>
<g>
</g>
<g>
</g>
<g>
</g>
<g>
</g>
<g>
</g>
<g>
</g>
</svg>
