<?xml version="1.0" encoding="iso-8859-1"?>
<!-- Generator: Adobe Illustrator 16.0.0, SVG Export Plug-In . SVG Version: 6.00 Build 0)  -->
<!DOCTYPE svg PUBLIC "-//W3C//DTD SVG 1.1//EN" "http://www.w3.org/Graphics/SVG/1.1/DTD/svg11.dtd">
<svg version="1.1" id="Capa_1" xmlns="http://www.w3.org/2000/svg" xmlns:xlink="http://www.w3.org/1999/xlink" x="0px" y="0px"
	 width="60px" height="60px" viewBox="0 0 60 60" style="enable-background:new 0 0 60 60;" xml:space="preserve">
<g>
	<path d="M17,0H8C2.5,0,0,2.5,0,8v9c0,5.5,2.5,8,8,8h9c5.5,0,8-2.5,8-8V8C25,2.5,22.5,0,17,0z M52,0h-9c-5.5,0-8,2.5-8,8v9
		c0,5.5,2.5,8,8,8h9c5.5,0,8-2.5,8-8V8C60,2.5,57.5,0,52,0z M17,35H8c-5.5,0-8,2.5-8,8v9c0,5.5,2.5,8,8,8h9c5.5,0,8-2.5,8-8v-9
		C25,37.5,22.5,35,17,35z M52,35h-9c-5.5,0-8,2.5-8,8v9c0,5.5,2.5,8,8,8h9c5.5,0,8-2.5,8-8v-9C60,37.5,57.5,35,52,35z"/>
</g>
<g>
</g>
<g>
</g>
<g>
</g>
<g>
</g>
<g>
</g>
<g>
</g>
<g>
</g>
<g>
</g>
<g>
</g>
<g>
</g>
<g>
</g>
<g>
</g>
<g>
</g>
<g>
</g>
<g>
</g>
</svg>
